# Blender v2.91.0 OBJ File: 'Road.blend'
# www.blender.org
mtllib Road.mtl
o Cube
v 1.000000 0.003125 -1.000000
v 1.000000 -0.003125 -1.000000
v 1.000000 0.003125 1.000000
v 1.000000 -0.003125 1.000000
v -1.000000 0.003125 -1.000000
v -1.000000 -0.003125 -1.000000
v -1.000000 0.003125 1.000000
v -1.000000 -0.003125 1.000000
v 0.751887 -0.003125 -1.000000
v -0.751758 -0.003125 -1.000000
v 0.751887 0.003125 1.000000
v -0.751758 0.003125 1.000000
v -0.751758 -0.003125 1.000000
v 0.751887 -0.003125 1.000000
v -0.751758 0.003125 -1.000000
v 0.751887 0.003125 -1.000000
v -0.751758 0.023539 1.000000
v -1.000000 0.023539 1.000000
v 1.000000 0.023539 -1.000000
v 1.000000 0.023539 1.000000
v -1.000000 0.023539 -1.000000
v 0.751887 0.023539 -1.000000
v 0.751887 0.023539 1.000000
v -0.751758 0.023539 -1.000000
v 0.770007 -0.003125 1.000000
v 0.770007 0.003125 -1.000000
v 0.770007 -0.003125 -1.000000
v 0.770007 0.003125 1.000000
v 0.770007 0.023539 -1.000000
v 0.770007 0.023539 1.000000
v -0.768357 -0.003125 -1.000000
v -0.768357 0.003125 1.000000
v -0.768357 -0.003125 1.000000
v -0.768357 0.003125 -1.000000
v -0.768357 0.023539 1.000000
v -0.768357 0.023539 -1.000000
v 0.770007 0.036384 1.000000
v 0.751887 0.036384 1.000000
v -0.768357 0.036384 -1.000000
v -0.751758 0.036384 -1.000000
v 0.751887 0.036384 -1.000000
v -0.751758 0.036384 1.000000
v 0.770007 0.036384 -1.000000
v -0.768357 0.036384 1.000000
vt 0.116491 0.003709
vt 0.004835 0.003709
vt 0.116491 0.003709
vt 0.004835 0.003709
vt 0.004835 0.996291
vt 0.995165 0.996291
vt 0.884326 0.003709
vt 0.884326 0.996291
vt 0.995165 0.996291
vt 0.995165 0.003709
vt 0.884326 0.996291
vt 0.116491 0.996291
vt 0.124776 0.996291
vt 0.116491 0.996291
vt 0.124776 0.996291
vt 0.875282 0.996291
vt 0.124776 0.003709
vt 0.884326 0.003709
vt 0.875282 0.003709
vt 0.875282 0.003709
vt 0.124776 0.003709
vt 0.116491 0.003709
vt 0.875282 0.996291
vt 0.884326 0.996291
vt 0.884326 0.003709
vt 0.884326 0.003709
vt 0.004835 0.996291
vt 0.004835 0.996291
vt 0.116491 0.996291
vt 0.995165 0.003709
vt 0.995165 0.003709
vt 0.995165 0.996291
vt 0.875282 0.003709
vt 0.124776 0.996291
vt 0.116491 0.996291
vt 0.004835 0.003709
vt 0.875282 0.996291
vt 0.884326 0.996291
vt 0.124776 0.003709
vt 0.124776 0.996291
vt 0.875282 0.996291
vt 0.124776 0.003709
vt 0.116491 0.003709
vt 0.875282 0.003709
vn 0.0000 0.0000 1.0000
vn -1.0000 0.0000 0.0000
vn 0.0000 -1.0000 0.0000
vn 1.0000 0.0000 0.0000
vn 0.0000 0.0000 -1.0000
vn 0.0000 1.0000 0.0000
g Cube_Cube_RoadMaterial
usemtl RoadMaterial
s off
f 32/1/1 8/2/1 33/3/1
f 7/4/2 6/5/2 8/2/2
f 2/6/3 25/7/3 27/8/3
f 1/9/4 4/10/4 2/6/4
f 26/11/5 2/6/5 27/8/5
f 34/12/5 10/13/5 31/14/5
f 15/15/5 9/16/5 10/13/5
f 10/13/3 33/3/3 31/14/3
f 9/16/3 13/17/3 10/13/3
f 28/18/1 14/19/1 25/7/1
f 11/20/1 13/17/1 14/19/1
f 12/21/1 35/22/1 32/1/1
f 15/15/6 11/20/6 16/23/6
f 29/24/4 37/25/4 30/26/4
f 7/4/2 21/27/2 5/28/2
f 5/28/5 36/29/5 34/12/5
f 1/9/4 20/30/4 3/31/4
f 3/31/1 30/26/1 28/18/1
f 16/23/5 29/24/5 26/11/5
f 26/11/5 19/32/5 1/9/5
f 28/18/1 23/33/1 11/20/1
f 3/31/1 25/7/1 4/10/1
f 16/23/5 27/8/5 9/16/5
f 27/8/3 14/19/3 9/16/3
f 34/12/5 24/34/5 15/15/5
f 35/22/2 39/35/2 36/29/2
f 32/1/1 18/36/1 7/4/1
f 31/14/3 8/2/3 6/5/3
f 5/28/5 31/14/5 6/5/5
f 12/21/1 33/3/1 13/17/1
f 41/37/6 37/25/6 43/38/6
f 39/35/6 42/39/6 40/40/6
f 22/41/5 43/38/5 29/24/5
f 36/29/5 40/40/5 24/34/5
f 17/42/1 44/43/1 35/22/1
f 30/26/1 38/44/1 23/33/1
f 32/1/1 7/4/1 8/2/1
f 7/4/2 5/28/2 6/5/2
f 2/6/3 4/10/3 25/7/3
f 1/9/4 3/31/4 4/10/4
f 26/11/5 1/9/5 2/6/5
f 34/12/5 15/15/5 10/13/5
f 15/15/5 16/23/5 9/16/5
f 10/13/3 13/17/3 33/3/3
f 9/16/3 14/19/3 13/17/3
f 28/18/1 11/20/1 14/19/1
f 11/20/1 12/21/1 13/17/1
f 12/21/1 17/42/1 35/22/1
f 15/15/6 12/21/6 11/20/6
f 29/24/4 43/38/4 37/25/4
f 7/4/2 18/36/2 21/27/2
f 5/28/5 21/27/5 36/29/5
f 1/9/4 19/32/4 20/30/4
f 3/31/1 20/30/1 30/26/1
f 16/23/5 22/41/5 29/24/5
f 26/11/5 29/24/5 19/32/5
f 28/18/1 30/26/1 23/33/1
f 3/31/1 28/18/1 25/7/1
f 16/23/5 26/11/5 27/8/5
f 27/8/3 25/7/3 14/19/3
f 34/12/5 36/29/5 24/34/5
f 35/22/2 44/43/2 39/35/2
f 32/1/1 35/22/1 18/36/1
f 31/14/3 33/3/3 8/2/3
f 5/28/5 34/12/5 31/14/5
f 12/21/1 32/1/1 33/3/1
f 41/37/6 38/44/6 37/25/6
f 39/35/6 44/43/6 42/39/6
f 22/41/5 41/37/5 43/38/5
f 36/29/5 39/35/5 40/40/5
f 17/42/1 42/39/1 44/43/1
f 30/26/1 37/25/1 38/44/1
g Cube_Cube_LightMaterial
usemtl LightMaterial
f 11/20/2 22/41/2 16/23/2
f 15/15/4 17/42/4 12/21/4
f 24/34/4 42/39/4 17/42/4
f 23/33/2 41/37/2 22/41/2
f 11/20/2 23/33/2 22/41/2
f 15/15/4 24/34/4 17/42/4
f 24/34/4 40/40/4 42/39/4
f 23/33/2 38/44/2 41/37/2
g Cube_Cube_HumanRoadMaterial
usemtl HumanRoadMaterial
f 21/27/6 35/22/6 36/29/6
f 29/24/6 20/30/6 19/32/6
f 21/27/6 18/36/6 35/22/6
f 29/24/6 30/26/6 20/30/6
