# Blender v2.83.10 OBJ File: 'VAZ2107.blend'
# www.blender.org
mtllib VAZ2107LP.mtl
o VAZ2107_Cube
v 0.092432 0.030475 -0.221110
v 0.088842 0.036107 0.222970
v 0.086753 0.109806 -0.148285
v 0.076288 0.167624 -0.109988
v 0.071339 0.168493 0.080488
v 0.094442 0.098608 0.249738
v 0.090761 0.090580 -0.246547
v 0.090381 0.113759 0.108895
v -0.092432 0.030475 -0.221110
v -0.086753 0.109806 -0.148285
v -0.076288 0.167624 -0.109988
v -0.071339 0.168493 0.080488
v -0.094442 0.098608 0.249738
v -0.090761 0.090580 -0.246547
v -0.090381 0.113759 0.108895
v -0.088842 0.036107 0.222970
vt 0.650964 0.519863
vt 0.664266 0.675952
vt 0.664266 0.675952
vt 0.375000 0.500000
vt 0.624162 0.500000
vt 0.624162 0.500000
vt 0.627030 0.687457
vt 0.378236 0.735537
vt 0.627030 0.687457
vt 0.632331 0.503475
vt 0.375000 0.500000
vt 0.616715 0.749915
vt 0.378236 0.735537
vt 0.616715 0.749915
vt 0.650964 0.519863
vt 0.632331 0.503475
vn 0.0000 1.0000 -0.0046
vn 0.0000 -0.3898 -0.9209
vn 0.9987 0.0487 0.0154
vn 0.9999 -0.0113 -0.0009
vn 0.9983 -0.0534 -0.0229
vn -0.9999 -0.0113 -0.0009
vn -0.9971 0.0761 -0.0051
vn -0.9987 0.0487 0.0154
vn 0.0000 0.9814 -0.1920
vn 0.0000 0.9943 0.1070
vn 0.0000 -0.3937 0.9192
vn 0.9986 0.0416 0.0326
vn 0.9971 0.0761 -0.0051
vn 0.9966 -0.0736 -0.0367
vn -0.9986 0.0416 0.0326
vn -0.9983 -0.0534 -0.0229
vn -0.9966 -0.0736 -0.0367
vn 0.0000 0.5522 -0.8337
vn 0.9819 0.1888 -0.0168
vn -0.9405 0.3391 0.0229
vn 0.0000 0.4607 0.8876
vn 0.9405 0.3391 0.0229
vn -0.9819 0.1888 -0.0168
g VAZ2107_Cube_CarMaterial
usemtl CarMaterial
s 1
f 4/1/1 12/2/1 5/3/1
f 1/4/2 14/5/2 7/6/2
f 1/4/3 8/7/4 2/8/5
f 15/9/6 10/10/7 9/11/8
f 10/10/9 7/6/9 14/5/9
f 15/9/10 6/12/10 8/7/10
f 16/13/11 6/12/11 13/14/11
f 4/1/1 11/15/1 12/2/1
f 1/4/2 9/11/2 14/5/2
f 1/4/3 7/6/12 3/16/13
f 3/16/13 8/7/4 1/4/3
f 8/7/4 6/12/14 2/8/5
f 14/5/15 9/11/8 10/10/7
f 9/11/8 16/13/16 15/9/6
f 16/13/16 13/14/17 15/9/6
f 10/10/9 3/16/9 7/6/9
f 15/9/10 13/14/10 6/12/10
f 16/13/11 2/8/11 6/12/11
g VAZ2107_Cube_WindowsMaterial
usemtl WindowsMaterial
f 3/16/18 11/15/18 4/1/18
f 4/1/19 8/7/19 3/16/19
f 11/15/20 15/9/20 12/2/20
f 8/7/21 12/2/21 15/9/21
f 3/16/18 10/10/18 11/15/18
f 4/1/22 5/3/22 8/7/22
f 11/15/23 10/10/23 15/9/23
f 8/7/21 5/3/21 12/2/21
