# Blender v2.83.10 OBJ File: 'GAZ13.blend'
# www.blender.org
mtllib GAZ13LP.mtl
o GAZ13_Cube.001
v 0.097442 0.128108 0.307605
v 0.093439 0.132928 -0.374466
v 0.104720 0.041299 -0.362616
v 0.084052 0.200581 -0.160324
v 0.109075 0.136142 0.154320
v 0.083584 0.201850 0.098050
v 0.099913 0.039019 0.315612
v 0.109754 0.141992 -0.243889
v -0.097442 0.128108 0.307605
v -0.093439 0.132928 -0.374466
v -0.104720 0.041299 -0.362616
v -0.084052 0.200581 -0.160324
v -0.109075 0.136142 0.154320
v -0.083584 0.201850 0.098050
v -0.099913 0.039019 0.315612
v -0.109754 0.141992 -0.243889
v 0.000000 0.038977 0.319017
v 0.000000 0.044025 -0.369384
vt 0.625000 0.760032
vt 0.625000 0.760508
vt 0.625000 0.760032
vt 0.375000 0.750123
vt 0.375000 0.750104
vt 0.622388 0.750000
vt 0.625000 0.758553
vt 0.625000 0.753092
vt 0.625000 0.753092
vt 0.622388 0.750000
vt 0.375000 0.750104
vt 0.625000 0.758152
vt 0.375000 0.750123
vt 0.375000 0.753721
vt 0.625000 0.754620
vt 0.625000 0.758152
vt 0.375000 0.752084
vt 0.625000 0.758553
vt 0.625000 0.760508
vt 0.625000 0.754620
vt 0.625000 0.750000
vt 0.625000 0.754697
vt 0.625000 0.754697
vt 0.625000 0.750000
vn 0.0000 0.9457 -0.3251
vn 0.0000 1.0000 -0.0049
vn 0.9986 -0.0082 0.0518
vn 0.9964 0.0370 -0.0760
vn 0.9993 0.0340 0.0143
vn 0.0000 0.9976 -0.0692
vn 0.0000 0.9467 -0.3222
vn -0.9993 0.0340 0.0143
vn -0.9982 0.0558 -0.0207
vn -0.9964 0.0370 -0.0760
vn -0.0181 0.1075 0.9940
vn -0.0339 0.0904 0.9953
vn -0.0000 0.1097 0.9940
vn 0.0000 0.9986 0.0523
vn 0.0000 -0.0887 -0.9961
vn -0.0336 -0.0922 -0.9952
vn 0.0336 -0.0922 -0.9952
vn 0.9859 0.1045 -0.1304
vn 0.9982 0.0558 -0.0207
vn 0.9964 0.0346 0.0774
vn -0.9859 0.1045 -0.1304
vn -0.9986 -0.0082 0.0518
vn -0.9964 0.0346 0.0774
vn 0.0339 0.0904 0.9953
vn 0.0181 0.1075 0.9940
vn 0.0609 -0.1206 -0.9908
vn -0.0609 -0.1206 -0.9908
vn 0.9207 0.3902 0.0067
vn -0.9207 0.3902 0.0067
vn -0.9323 0.3616 -0.0001
vn 0.0000 0.6504 0.7596
vn 0.9323 0.3616 -0.0001
g GAZ13_Cube.001_CarMaterial
usemtl CarMaterial
s 1
f 12/1/1 6/2/2 4/3/1
f 7/4/3 3/5/4 5/6/5
f 2/7/6 16/8/7 8/9/7
f 13/10/8 16/8/9 11/11/10
f 9/12/11 15/13/12 17/14/13
f 5/15/14 9/12/14 1/16/14
f 18/17/15 10/18/16 2/7/17
f 12/1/1 14/19/2 6/2/2
f 2/7/18 8/9/19 3/5/4
f 8/9/19 5/6/5 3/5/4
f 5/6/5 1/16/20 7/4/3
f 2/7/6 10/18/6 16/8/7
f 10/18/21 11/11/10 16/8/9
f 11/11/10 15/13/22 13/10/8
f 15/13/22 9/12/23 13/10/8
f 7/4/24 1/16/25 17/14/13
f 1/16/25 9/12/11 17/14/13
f 5/15/14 13/20/14 9/12/14
f 2/7/17 3/5/26 18/17/15
f 18/17/15 11/11/27 10/18/16
g GAZ13_Cube.001_WindowsMaterial
usemtl WindowsMaterial
f 4/21/28 5/22/5 8/9/19
f 12/1/29 13/23/8 14/24/30
f 8/9/7 12/1/1 4/3/1
f 6/2/31 13/20/31 5/15/31
f 4/21/28 6/2/32 5/22/5
f 12/1/29 16/8/9 13/23/8
f 8/9/7 16/8/7 12/1/1
f 6/2/31 14/19/31 13/20/31
