# Blender v2.91.2 OBJ File: 'CarsLPLOD.blend'
# www.blender.org
mtllib VAZ-2107LP.mtl
o VAZ2107_Cube
v 0.076288 0.167624 -0.109988
v -0.071339 0.168493 0.080488
v 0.071339 0.168493 0.080488
v 0.092432 0.030475 -0.221110
v -0.090761 0.090580 -0.246547
v 0.090761 0.090580 -0.246547
v 0.090381 0.113759 0.108895
v 0.088842 0.036107 0.222970
v -0.090381 0.113759 0.108895
v -0.086753 0.109806 -0.148285
v -0.092432 0.030475 -0.221110
v 0.094442 0.098608 0.249738
v -0.088842 0.036107 0.222970
v -0.094442 0.098608 0.249738
v -0.076288 0.167624 -0.109988
v 0.086753 0.109806 -0.148285
vt 0.650964 0.519863
vt 0.664266 0.675952
vt 0.664266 0.675952
vt 0.952466 0.131053
vt 0.952466 0.405679
vt 0.866438 0.164208
vt 0.854730 0.771486
vt 0.743035 0.304003
vt 0.854731 0.144302
vt 0.940234 0.893410
vt 0.856462 0.539942
vt 0.940234 0.412768
vt 0.965107 0.615007
vt 0.708973 0.483753
vt 0.965107 0.473500
vt 0.965107 0.134365
vt 0.965107 0.463208
vt 0.809824 0.336968
vt 0.831078 0.875566
vt 0.927094 0.616738
vt 0.927094 0.883474
vt 0.650964 0.519863
vt 0.653918 0.620108
vt 0.914891 0.613426
vt 0.914891 0.705623
vt 0.750197 0.726199
vt 0.840447 0.707354
vt 0.840447 0.848861
vt 0.691931 0.484521
vt 0.775704 0.131053
vt 0.775704 0.611695
vt 0.748465 0.902240
vt 0.653918 0.725859
vt 0.748465 0.707354
vt 0.768128 0.773218
vt 0.768128 0.865414
vt 0.629609 0.802142
vt 0.741304 0.144302
vt 0.741304 0.771486
vt 0.629609 0.611785
vt 0.777435 0.437206
vt 0.869508 0.408847
vt 0.869508 0.608971
vt 0.829346 0.904544
vt 0.708973 0.691132
vt 0.829346 0.616738
vt 0.608052 0.140100
vt 0.808093 0.134365
vt 0.808093 0.401101
vt 0.864706 0.407116
vt 0.777435 0.171862
vt 0.864706 0.131053
vt 0.225994 0.492814
vt 0.225994 0.930719
vt 0.078389 0.583707
vt 0.025032 0.605204
vt 0.169058 0.065895
vt 0.169058 0.701667
vt 0.268480 0.076594
vt 0.268480 0.634803
vt 0.146885 0.531561
vt 0.225994 0.063755
vt 0.225994 0.491528
vt 0.066815 0.481199
vt 0.283785 0.078734
vt 0.283785 0.507563
vt 0.112380 0.481698
vt 0.348876 0.621965
vt 0.227280 0.166997
vt 0.348876 0.063755
vt 0.170345 0.162359
vt 0.314371 0.065895
vt 0.314371 0.701667
vt 0.238021 0.936622
vt 0.112380 0.838344
vt 0.238021 0.508850
vn 0.0000 1.0000 -0.0046
vn 0.0000 -0.3897 -0.9209
vn 0.9987 0.0487 0.0154
vn 0.9999 -0.0113 -0.0009
vn 0.9983 -0.0534 -0.0229
vn -0.9999 -0.0113 -0.0009
vn -0.9971 0.0761 -0.0051
vn -0.9987 0.0487 0.0154
vn 0.0000 0.9814 -0.1920
vn 0.0000 0.9943 0.1070
vn 0.0000 -0.3937 0.9192
vn 0.9986 0.0416 0.0326
vn 0.9971 0.0761 -0.0051
vn 0.9966 -0.0736 -0.0367
vn -0.9986 0.0416 0.0326
vn -0.9983 -0.0534 -0.0229
vn -0.9966 -0.0736 -0.0367
vn 0.0000 0.5522 -0.8337
vn 0.9819 0.1888 -0.0168
vn -0.9405 0.3391 0.0229
vn 0.0000 0.4607 0.8876
vn 0.9405 0.3391 0.0229
vn -0.9819 0.1888 -0.0168
usemtl Material.003
s 1
f 1/1/1 2/2/1 3/3/1
f 4/4/2 5/5/2 6/6/2
f 4/7/3 7/8/4 8/9/5
f 9/10/6 10/11/7 11/12/8
f 10/13/9 6/14/9 5/15/9
f 9/16/10 12/17/10 7/18/10
f 13/19/11 12/20/11 14/21/11
f 1/1/1 15/22/1 2/2/1
f 4/23/2 11/24/2 5/25/2
f 4/26/3 6/27/12 16/28/13
f 16/29/13 7/30/4 4/31/3
f 7/32/4 12/33/14 8/34/5
f 5/35/15 11/36/8 10/37/7
f 11/38/8 13/39/16 9/40/6
f 13/41/16 14/42/17 9/43/6
f 10/44/9 16/45/9 6/46/9
f 9/47/10 14/48/10 12/49/10
f 13/50/11 8/51/11 12/52/11
f 16/53/18 15/54/18 1/55/18
f 1/56/19 7/57/19 16/58/19
f 15/59/20 9/60/20 2/61/20
f 7/62/21 2/63/21 9/64/21
f 16/65/18 10/66/18 15/67/18
f 1/68/22 3/69/22 7/70/22
f 15/71/23 10/72/23 9/73/23
f 7/74/21 3/75/21 2/76/21
