# Blender v2.83.10 OBJ File: 'untitled.blend'
# www.blender.org
mtllib ZAZLP2.mtl
o ZAZ_Cube.001
v 0.081754 0.082247 0.336694
v 0.077064 0.010191 0.330278
v 0.100099 0.010615 -0.017506
v 0.056754 0.152756 0.203657
v 0.080921 0.096229 0.250903
v 0.061411 0.146111 0.030680
v 0.086447 0.086274 -0.051695
v -0.081754 0.082247 0.336694
v -0.077064 0.010191 0.330278
v -0.100099 0.010615 -0.017506
v -0.056754 0.152756 0.203657
v -0.080921 0.096229 0.250903
v -0.061411 0.146111 0.030680
v -0.086447 0.086274 -0.051695
vt 0.810989 0.355382
vt 0.736490 0.675421
vt 0.730557 0.221210
vt 0.736490 0.675421
vt 0.810989 0.355382
vt 0.730557 0.221210
vt 0.304795 1.023984
vt 0.432557 0.925445
vt 0.304795 1.023984
vt 0.566773 0.969185
vt 0.458016 0.908467
vt 0.458016 0.908467
vt 0.810989 0.609643
vt 0.810989 0.609643
vt 0.432557 0.925445
vt 0.566773 0.969185
vt 0.091017 0.213629
vt 0.157114 0.570767
vt 0.001928 0.701499
vt 0.680513 0.784260
vt 0.567075 0.763699
vt 0.567075 0.763699
vt 0.001928 0.701499
vt 0.124037 0.728858
vt 0.157114 0.570767
vt 0.810989 0.469384
vt 0.933475 0.513566
vt 0.810989 0.469384
vt 0.722895 0.221210
vt 0.582808 0.258051
vt 0.582808 0.258051
vt 0.367657 0.192125
vt 0.668837 0.213827
vt 0.668837 0.213827
vt 0.154839 0.040968
vt 0.124037 0.728858
vt 0.680513 0.784260
vt 0.154839 0.040968
vt 0.052848 0.657204
vt 0.933475 0.513566
vt 0.722895 0.221210
vt 0.367657 0.192125
vn 0.9246 0.3809 0.0044
vn -0.9246 0.3809 0.0044
vn 0.0000 0.8091 -0.5877
vn 0.0000 0.6413 0.7673
vn 0.9166 0.3997 0.0093
vn -0.9166 0.3997 0.0093
vn 0.9977 0.0163 0.0661
vn 0.0000 -0.4118 -0.9113
vn -0.9978 -0.0632 -0.0200
vn 0.0000 -0.0887 0.9961
vn 0.0000 0.9870 0.1609
vn 0.0000 0.9993 -0.0384
vn 0.9831 0.1828 0.0119
vn 0.9978 -0.0632 -0.0200
vn -0.9831 0.1828 0.0119
vn -0.9977 0.0163 0.0661
g ZAZ_Cube.001_WindowMaterial
usemtl WindowMaterial
s off
f 6/1/1 5/2/1 7/3/1
f 12/4/2 13/5/2 14/6/2
f 14/7/3 6/8/3 7/9/3
f 12/10/4 4/11/4 11/12/4
f 6/1/5 4/13/5 5/2/5
f 12/4/6 11/14/6 13/5/6
f 14/7/3 13/15/3 6/8/3
f 12/10/4 5/16/4 4/11/4
g ZAZ_Cube.001_CarMaterial
usemtl CarMaterial
f 3/17/7 5/18/7 2/19/7
f 14/20/8 3/21/8 10/22/8
f 9/23/9 8/24/9 12/25/9
f 8/26/10 2/27/10 1/28/10
f 5/29/11 8/30/11 1/31/11
f 6/32/12 11/33/12 4/34/12
f 7/35/13 5/18/13 3/17/13
f 5/18/14 1/36/14 2/19/14
f 14/20/8 7/37/8 3/21/8
f 14/38/15 10/39/15 12/25/15
f 10/39/16 9/23/16 12/25/16
f 8/26/10 9/40/10 2/27/10
f 5/29/11 12/41/11 8/30/11
f 6/32/12 13/42/12 11/33/12
