# Blender v2.83.10 OBJ File: ''
# www.blender.org
mtllib BagLP.mtl
o Cube.024_Cube.028
v -0.637707 -1.049543 0.637707
v -0.637707 0.823796 0.637707
v -0.637707 1.049543 -0.637707
v 0.637707 -1.049543 0.637707
v 0.637707 0.823796 0.637707
v 0.637707 1.049543 -0.637707
v -0.637707 0.823796 -0.637707
v 0.637707 0.823796 -0.637707
v -0.637707 -1.049543 -0.637707
v 0.637707 -1.049543 -0.637707
vt 0.577378 0.500000
vt 0.554358 0.750000
vt 0.554358 0.500000
vt 0.875000 0.500000
vt 0.625000 0.750000
vt 0.625000 0.500000
vt 0.577378 0.250000
vt 0.554358 0.250000
vt 0.577378 0.000000
vt 0.554358 0.000000
vt 0.577378 0.750000
vt 0.875000 0.750000
vt 0.625000 0.000000
vt 0.625000 0.250000
vn 1.0000 0.0000 0.0000
vn 0.0000 0.9847 0.1743
vn 0.0000 0.0000 -1.0000
vn -1.0000 0.0000 0.0000
g Cube.024_Cube.028_BagMaterial.005
usemtl BagMaterial.005
s off
f 8/1/1 4/2/1 10/3/1
f 3/4/2 5/5/2 6/6/2
f 7/7/3 10/3/3 9/8/3
f 2/9/4 9/8/4 1/10/4
f 8/1/1 5/11/1 4/2/1
f 3/4/2 2/12/2 5/5/2
f 7/7/3 8/1/3 10/3/3
f 2/9/4 7/7/4 9/8/4
g Cube.024_Cube.028_LightMaterial.005
usemtl LightMaterial.005
f 2/13/4 3/14/4 7/7/4
f 3/14/3 8/1/3 7/7/3
f 8/1/1 6/6/1 5/11/1
f 3/14/3 6/6/3 8/1/3
