# Blender v2.91.2 OBJ File: 'Lamp.blend'
# www.blender.org
mtllib Lamp.mtl
o Cube
v 0.443901 -0.000434 -0.443901
v 0.443901 -0.000434 0.443901
v -0.443901 -0.000434 -0.443901
v -0.443901 -0.000434 0.443901
v 0.170000 17.051216 -0.170000
v 0.170000 16.927776 -0.170000
v -0.170000 16.927776 0.170000
v -0.170000 17.051216 0.170000
v 0.170000 17.051216 0.170000
v 0.170000 16.927776 0.170000
v -0.170000 17.051216 -0.170000
v -0.170000 16.927776 -0.170000
v -0.170000 16.928997 1.118172
v 0.170000 16.930195 1.118172
v 1.094141 16.930195 -0.170000
v 1.094141 16.928997 0.170000
v 0.170000 16.928997 -1.090711
v -0.170000 16.930195 -1.090711
v -1.076754 16.930195 0.170000
v -1.076754 16.928997 -0.170000
v 0.170000 15.207500 -0.170000
v 0.170000 13.533437 -0.170000
v 0.170000 15.207500 0.170000
v 0.170000 13.533437 0.170000
v -0.170000 15.207500 -0.170000
v -0.170000 13.533437 -0.170000
v -0.170000 13.533438 0.170000
v -0.170000 15.207500 0.170000
v -0.588923 15.207500 -0.170000
v -0.588923 13.533437 -0.170000
v -0.588923 13.533438 0.170000
v -0.588923 15.207500 0.170000
v -0.170000 15.207500 -0.591669
v -0.170000 13.533437 -0.591669
v 0.664290 15.207500 0.170000
v 0.664290 13.533437 0.170000
v 0.664290 15.207500 -0.591669
v 0.664290 13.533437 -0.591669
v 0.196379 0.576701 -0.196379
v 0.196379 0.576701 0.196379
v -0.196379 0.576701 -0.196379
v -0.196379 0.576702 0.196379
vt 0.458333 0.250000
vt 0.430556 0.500000
vt 0.430556 0.250000
vt 0.458333 0.500000
vt 0.430556 0.750000
vt 0.458333 0.750000
vt 0.459158 0.750000
vt 0.541667 0.750000
vt 0.458333 0.000000
vt 0.430556 0.000000
vt 0.000000 0.000000
vt 0.000000 0.000000
vt 0.000000 0.000000
vt 0.430556 1.000000
vt 0.459967 0.750000
vt 0.000000 0.000000
vt 0.000000 0.000000
vt 0.459158 0.000000
vt 0.541667 0.000000
vt 0.000000 0.000000
vt 0.000000 0.000000
vt 0.541667 0.500000
vt 0.459967 0.500000
vt 0.000000 0.000000
vt 0.541667 0.250000
vt 0.459967 0.250000
vt 0.459158 0.500000
vt 0.459158 0.250000
vt 0.459967 0.000000
vt 0.402778 0.750000
vt 0.384259 1.000000
vt 0.384259 0.750000
vt 0.402778 0.000000
vt 0.384259 0.250000
vt 0.384259 0.000000
vt 0.402778 0.500000
vt 0.384259 0.500000
vt 0.375000 0.500000
vt 0.375000 0.250000
vt 0.375000 0.750000
vt 0.375000 0.000000
vt 0.375000 1.000000
vt 0.402778 0.250000
vt 0.000000 0.000000
vt 0.458333 1.000000
vt 0.000000 0.000000
vt 0.000000 0.000000
vt 0.000000 0.000000
vt 0.402778 1.000000
vt 0.402778 1.000000
vt 0.430556 0.000000
vt 0.430556 0.250000
vt 0.402778 0.250000
vt 0.402778 0.000000
vt 0.402778 0.500000
vt 0.430556 0.750000
vt 0.402778 0.750000
vt 0.430556 0.250000
vt 0.402778 0.250000
vt 0.430556 0.500000
vt 0.430556 1.000000
vn 0.0000 0.0000 -1.0000
vn 1.0000 0.0000 0.0000
vn 0.0000 0.0000 1.0000
vn -1.0000 0.0000 0.0000
vn -0.1323 0.9912 0.0000
vn 0.0000 0.9920 0.1266
vn 0.1298 0.9915 0.0000
vn 0.0000 0.9915 -0.1303
vn 0.0000 1.0000 0.0000
vn 0.0000 0.0020 1.0000
vn -1.0000 0.0020 -0.0000
vn 1.0000 0.0020 0.0000
vn 0.0000 0.3942 -0.9190
vn 0.9190 0.3942 0.0000
vn -0.9190 0.3942 0.0000
vn 0.0000 0.3942 0.9190
vn 0.0000 0.0020 -1.0000
vn -0.1336 0.9910 -0.0035
vn -0.0035 0.9918 0.1278
vn 0.1311 0.9914 0.0035
vn 0.0035 0.9913 -0.1316
g Cube_Cube_PostMaterial
usemtl PostMaterial
s off
f 12/1/1 21/2/1 25/3/1
f 6/4/2 23/5/2 21/2/2
f 10/6/3 16/7/3 9/8/3
f 7/9/4 25/3/4 28/10/4
f 11/11/5 19/12/5 8/13/5
f 10/6/3 28/14/3 23/5/3
f 9/8/2 14/15/2 10/6/2
f 8/13/6 14/16/6 9/17/6
f 7/9/4 13/18/4 8/19/4
f 9/17/7 15/20/7 5/21/7
f 5/22/1 15/23/1 6/4/1
f 5/21/8 18/24/8 11/11/8
f 11/25/4 18/26/4 12/1/4
f 6/4/2 17/27/2 5/22/2
f 12/1/1 20/28/1 11/25/1
f 8/19/3 19/29/3 7/9/3
f 8/13/9 5/21/9 11/11/9
f 24/30/10 42/31/10 40/32/10
f 27/33/11 41/34/11 42/35/11
f 22/36/12 40/32/12 39/37/12
f 41/34/13 1/38/13 3/39/13
f 39/37/14 2/40/14 1/38/14
f 42/35/15 3/39/15 4/41/15
f 40/32/16 4/42/16 2/40/16
f 26/43/17 39/37/17 41/34/17
f 12/1/1 6/4/1 21/2/1
f 6/4/2 10/6/2 23/5/2
f 7/9/4 12/1/4 25/3/4
f 11/11/18 20/44/18 19/12/18
f 10/6/3 7/45/3 28/14/3
f 8/13/19 13/46/19 14/16/19
f 9/17/20 16/47/20 15/20/20
f 5/21/21 17/48/21 18/24/21
f 8/13/9 9/17/9 5/21/9
f 24/30/10 27/49/10 42/31/10
f 27/33/11 26/43/11 41/34/11
f 22/36/12 24/30/12 40/32/12
f 41/34/13 39/37/13 1/38/13
f 39/37/14 40/32/14 2/40/14
f 42/35/15 41/34/15 3/39/15
f 40/32/16 42/31/16 4/42/16
f 26/43/17 22/36/17 39/37/17
g Cube_Cube_TranformatorMaterial
usemtl TranformatorMaterial
f 28/14/3 31/50/3 27/49/3
f 25/3/9 32/51/9 28/10/9
f 33/52/9 25/3/9 21/2/9
f 32/51/4 30/53/4 31/54/4
f 38/55/2 35/56/2 36/57/2
f 26/43/1 29/58/1 25/3/1
f 25/3/4 34/59/4 26/43/4
f 37/60/1 34/59/1 33/52/1
f 27/49/3 24/30/3 28/14/3
f 24/30/3 36/57/3 23/5/3
f 28/14/3 24/30/3 23/5/3
f 36/57/3 35/56/3 23/5/3
f 28/14/3 32/61/3 31/50/3
f 25/3/9 29/58/9 32/51/9
f 21/2/9 23/5/9 35/56/9
f 35/56/9 37/60/9 21/2/9
f 37/60/9 33/52/9 21/2/9
f 32/51/4 29/58/4 30/53/4
f 38/55/2 37/60/2 35/56/2
f 26/43/1 30/53/1 29/58/1
f 25/3/4 33/52/4 34/59/4
f 37/60/1 38/55/1 34/59/1
o Cube.003
v -0.520000 17.000000 1.000000
v 0.520000 17.000000 1.000000
v -1.483935 16.667433 7.640293
v -1.483935 16.929014 7.640293
v 1.483936 16.667433 7.640293
v 1.483936 16.929014 7.640293
v 0.570744 17.497463 3.359709
v 0.570744 17.958673 3.359709
v -0.570744 17.497463 3.359709
v -0.570744 17.958673 3.359709
v 1.000000 16.999998 0.520000
v 1.000000 16.999998 -0.520000
v 7.640294 16.667433 1.483935
v 7.640294 16.929014 1.483935
v 7.640293 16.667433 -1.483936
v 7.640293 16.929014 -1.483936
v 3.359709 17.497461 -0.570745
v 3.359709 17.958672 -0.570745
v 3.359709 17.497461 0.570744
v 3.359709 17.958672 0.570744
v -7.640293 16.667433 1.483935
v -7.640293 16.929014 1.483935
v -7.640294 16.667433 -1.483936
v -7.640294 16.929014 -1.483936
v -1.000000 16.999998 0.520000
v -1.000000 16.999998 -0.520000
v -3.359709 17.497461 -0.570745
v -3.359709 17.958672 -0.570745
v -3.359709 17.497461 0.570744
v -3.359709 17.958672 0.570744
v -1.483936 16.667433 -7.640293
v -1.483936 16.929014 -7.640293
v 1.483935 16.667433 -7.640293
v 1.483935 16.929014 -7.640293
v -0.520000 16.999998 -1.000000
v 0.520000 16.999998 -1.000000
v 0.570744 17.497461 -3.359709
v 0.570744 17.958672 -3.359709
v -0.570744 17.497461 -3.359709
v -0.570744 17.958672 -3.359709
vt 0.875000 0.500000
vt 0.750000 0.750000
vt 0.750000 0.500000
vt 0.625000 0.750000
vt 0.625000 0.500000
vt 0.875000 0.500000
vt 0.750000 0.750000
vt 0.750000 0.500000
vt 0.625000 0.750000
vt 0.625000 0.500000
vt 0.875000 0.500000
vt 0.750000 0.750000
vt 0.750000 0.500000
vt 0.625000 0.750000
vt 0.625000 0.500000
vt 0.875000 0.500000
vt 0.750000 0.750000
vt 0.750000 0.500000
vt 0.625000 0.750000
vt 0.625000 0.500000
vt 0.875000 0.750000
vt 0.625000 0.250000
vt 0.625000 0.375000
vt 0.375000 0.375000
vt 0.875000 0.750000
vt 0.875000 0.750000
vt 0.875000 0.750000
vt 0.375000 0.500000
vt 0.375000 0.750000
vt 0.375000 0.875000
vt 0.375000 0.375000
vt 0.375000 0.500000
vt 0.375000 0.750000
vt 0.375000 0.875000
vt 0.625000 0.000000
vt 0.375000 0.250000
vt 0.375000 0.000000
vt 0.375000 0.875000
vt 0.625000 1.000000
vt 0.375000 1.000000
vt 0.625000 0.250000
vt 0.375000 0.375000
vt 0.625000 0.000000
vt 0.375000 0.250000
vt 0.375000 0.000000
vt 0.375000 0.875000
vt 0.625000 1.000000
vt 0.375000 1.000000
vt 0.625000 0.250000
vt 0.375000 0.375000
vt 0.625000 0.875000
vt 0.625000 1.000000
vt 0.625000 0.375000
vt 0.625000 0.875000
vt 0.625000 1.000000
vt 0.625000 0.250000
vt 0.625000 0.375000
vt 0.625000 0.875000
vt 0.625000 0.375000
vt 0.625000 0.875000
vn 0.0000 0.9265 -0.3764
vn 0.0000 0.9723 0.2339
vn -0.3764 0.9265 0.0000
vn 0.2339 0.9723 0.0000
vn -0.2339 0.9723 0.0000
vn 0.3764 0.9265 0.0000
vn 0.0000 0.9723 -0.2339
vn 0.0000 0.9265 0.3764
vn 0.9998 0.0000 -0.0215
vn 0.9780 0.0000 -0.2086
vn 0.0000 0.0000 1.0000
vn -0.9780 0.0000 -0.2086
vn -0.2086 0.0000 -0.9780
vn 1.0000 0.0000 -0.0000
vn -0.2086 0.0000 0.9780
vn -1.0000 0.0000 0.0000
vn 0.2086 0.0000 0.9780
vn 0.2086 0.0000 -0.9780
vn 0.0000 0.0000 -1.0000
vn -0.9780 0.0000 0.2086
vn 0.9780 0.0000 0.2086
vn -0.9998 0.0000 -0.0215
vn -0.0215 0.0000 0.9998
vn -0.0215 0.0000 -0.9998
vn 0.0215 0.0000 -0.9998
vn 0.0215 0.0000 0.9998
vn 0.9998 0.0000 0.0215
vn -0.9998 0.0000 0.0215
g Cube.003_Cube.003_LampUpMaterial
usemtl LampUpMaterial
s off
f 44/62/22 52/63/22 50/64/22
f 50/64/23 46/65/23 48/66/23
f 54/67/24 62/68/24 60/69/24
f 60/69/25 56/70/25 58/71/25
f 66/72/26 72/73/26 70/74/26
f 70/74/27 67/75/27 68/76/27
f 76/77/28 82/78/28 80/79/28
f 80/79/29 77/80/29 78/81/29
f 44/62/22 43/82/22 52/63/22
f 50/64/23 52/63/23 46/65/23
f 44/83/30 50/84/30 49/85/30
f 54/67/24 53/86/24 62/68/24
f 60/69/25 62/68/25 56/70/25
f 66/72/26 64/87/26 72/73/26
f 70/74/27 72/73/27 67/75/27
f 76/77/28 74/88/28 82/78/28
f 80/79/29 82/78/29 77/80/29
g Cube.003_Cube.003_LightMaterial
usemtl LightMaterial
f 49/85/31 48/66/31 47/89/31
f 48/66/32 45/90/32 47/89/32
f 46/65/33 51/91/33 45/90/33
f 59/92/34 58/71/34 57/93/34
f 58/71/35 55/94/35 57/93/35
f 56/70/36 61/95/36 55/94/36
f 64/96/37 65/97/37 63/98/37
f 71/99/38 64/100/38 63/101/38
f 66/102/39 69/103/39 65/97/39
f 74/104/40 75/105/40 73/106/40
f 81/107/41 74/108/41 73/109/41
f 76/110/42 79/111/42 75/105/42
f 49/85/31 50/84/31 48/66/31
f 48/66/32 46/65/32 45/90/32
f 51/91/43 52/112/43 43/113/43
f 46/65/33 52/112/33 51/91/33
f 59/92/34 60/114/34 58/71/34
f 58/71/35 56/70/35 55/94/35
f 61/95/44 62/115/44 53/116/44
f 56/70/36 62/115/36 61/95/36
f 54/117/45 60/114/45 59/92/45
f 64/96/37 66/102/37 65/97/37
f 69/103/46 70/118/46 68/76/46
f 71/99/38 72/119/38 64/100/38
f 67/75/47 72/119/47 71/99/47
f 66/102/39 70/118/39 69/103/39
f 74/104/40 76/110/40 75/105/40
f 79/111/48 80/120/48 78/81/48
f 81/107/41 82/121/41 74/108/41
f 77/80/49 82/121/49 81/107/49
f 76/110/42 80/120/42 79/111/42
