# Blender v2.91.2 OBJ File: 'NewHouses.blend'
# www.blender.org
mtllib Brgs1.mtl
o Plane.004
v 0.149525 0.716494 -1.020604
v 0.871383 0.716494 -1.020604
v 0.149525 1.438352 -1.020604
v 0.871383 1.438352 -1.020604
v -1.000000 0.000000 1.000000
v -1.000000 2.000000 1.000000
v -1.000000 0.000000 -1.000000
v -1.000000 2.000000 -1.000000
v 1.000000 0.000000 1.000000
v 1.000000 2.000000 1.000000
v 1.000000 0.000000 -1.000000
v 1.000000 2.000000 -1.000000
v 0.000000 3.315537 1.000000
v 0.000000 3.315537 -1.000000
v 1.000000 2.000000 1.294247
v -1.000000 2.000000 1.294247
v 0.000000 3.315537 1.294247
v 0.000000 3.315537 -1.274304
v 1.000000 2.000000 -1.274304
v -1.000000 2.000000 -1.274304
v -1.000000 2.000000 -1.000000
v 1.000000 2.000000 -1.000000
v 0.000000 3.315537 -1.000000
v 0.378053 2.116364 -0.133091
v 0.378053 3.163929 -0.133091
v 0.378053 2.116364 -0.492923
v 0.378053 3.163929 -0.492923
v 0.737885 2.116364 -0.133091
v 0.737885 3.163929 -0.133091
v 0.737885 2.116364 -0.492923
v 0.737885 3.163929 -0.492923
v 1.007812 -0.001663 0.311261
v 1.007812 1.482113 0.311261
v 1.007812 -0.001663 -0.586523
v 1.007812 1.482113 -0.586523
v 1.905596 -0.001663 0.311261
v 1.905596 1.482113 0.311261
v 1.905596 -0.001663 -0.586523
v 1.905596 1.482113 -0.586523
v 1.007812 1.928341 0.311261
v 1.007812 1.928341 -0.586523
v -0.807577 0.716494 1.028201
v -0.085718 0.716494 1.028201
v -0.807577 1.438352 1.028201
v -0.085718 1.438352 1.028201
v 0.149525 0.716494 1.028201
v 0.871383 0.716494 1.028201
v 0.149525 1.438352 1.028201
v 0.871383 1.438352 1.028201
v 1.201760 0.012383 0.344557
v 1.724236 0.012383 0.344557
v 1.201760 1.230938 0.344557
v 1.724236 1.230938 0.344557
v -0.807577 0.716494 -1.020604
v -0.085718 0.716494 -1.020604
v -0.807577 1.438352 -1.020604
v -0.085718 1.438352 -1.020604
vt 1.000000 0.000000
vt 0.000000 0.000000
vt 0.000000 1.000000
vt 0.000000 1.000000
vt 0.000000 0.000000
vt 1.000000 0.000000
vt 0.000000 1.000000
vt 0.000000 0.000000
vt 1.000000 0.000000
vt 1.000000 0.000000
vt 0.000000 0.000000
vt 0.000000 1.000000
vt 1.000000 1.000000
vt 1.000000 1.000000
vt 1.000000 1.000000
vt 1.000000 1.000000
vt 0.375000 0.250000
vt 0.375000 0.000000
vt 0.625000 0.000000
vt 0.375000 0.500000
vt 0.625000 0.250000
vt 0.375000 0.750000
vt 0.625000 0.500000
vt 0.375000 1.000000
vt 0.625000 0.750000
vt 0.125000 0.750000
vt 0.125000 0.500000
vt 0.625000 0.500000
vt 0.625000 0.500000
vt 0.625000 0.250000
vt 0.625000 1.000000
vt 0.625000 1.000000
vt 0.625000 0.500000
vt 0.375000 0.250000
vt 0.375000 0.000000
vt 0.625000 0.000000
vt 0.375000 0.500000
vt 0.625000 0.250000
vt 0.375000 0.750000
vt 0.625000 0.500000
vt 0.375000 1.000000
vt 0.625000 0.750000
vt 0.125000 0.750000
vt 0.125000 0.500000
vt 0.625000 0.250000
vt 0.625000 0.750000
vt 0.625000 0.250000
vt 0.625000 1.000000
vt 0.625000 0.000000
vt 0.625000 0.750000
vt 0.625000 0.250000
vt 0.625000 1.000000
vt 0.625000 0.500000
vt 0.875000 0.500000
vt 0.625000 1.000000
vt 0.625000 0.500000
vt 0.625000 0.000000
vt 0.875000 0.750000
vt 0.625000 0.000000
vt 0.625000 0.750000
vt 0.625000 0.000000
vt 0.375000 0.000000
vt 0.625000 0.000000
vt 0.625000 0.250000
vt 0.375000 0.500000
vt 0.375000 0.250000
vt 0.375000 0.750000
vt 0.625000 0.500000
vt 0.375000 1.000000
vt 0.625000 0.750000
vt 0.125000 0.750000
vt 0.125000 0.500000
vt 0.875000 0.500000
vt 0.625000 1.000000
vt 0.875000 0.750000
vt 0.000000 1.000000
vt 0.000000 0.000000
vt 1.000000 0.000000
vt 1.000000 1.000000
vn 0.0000 0.0000 -1.0000
vn 0.0000 0.0000 1.0000
vn -1.0000 0.0000 0.0000
vn 1.0000 0.0000 0.0000
vn 0.0000 -1.0000 0.0000
vn 0.7961 0.6052 0.0000
vn -0.7961 0.6052 0.0000
vn 0.4451 0.8955 0.0000
vn 0.0000 1.0000 0.0000
g Plane.004_Plane.004_WindowsMaterial
usemtl WindowsMaterial
s off
f 2/1/1 1/2/1 3/3/1
f 44/4/2 42/5/2 43/6/2
f 48/7/2 46/8/2 47/9/2
f 55/10/1 54/11/1 56/12/1
f 2/1/1 3/3/1 4/13/1
f 44/4/2 43/6/2 45/14/2
f 48/7/2 47/9/2 49/15/2
f 55/10/1 56/12/1 57/16/1
g Plane.004_Plane.004_CrabMaterial
usemtl CrabMaterial
f 7/17/3 5/18/3 6/19/3
f 11/20/1 7/17/1 8/21/1
f 9/22/4 11/20/4 12/23/4
f 5/24/2 9/22/2 10/25/2
f 5/26/5 7/27/5 11/20/5
f 22/28/2 23/29/2 21/30/2
f 16/31/5 6/32/5 10/25/5
f 19/33/5 22/28/5 21/30/5
f 34/34/3 32/35/3 33/36/3
f 38/37/1 34/34/1 35/38/1
f 36/39/4 38/37/4 39/40/4
f 32/41/2 36/39/2 37/42/2
f 32/43/5 34/44/5 38/37/5
f 41/45/3 35/38/3 33/36/3
f 7/17/3 6/19/3 8/21/3
f 11/20/1 8/21/1 12/23/1
f 9/22/4 12/23/4 10/25/4
f 5/24/2 10/25/2 6/32/2
f 5/26/5 11/20/5 9/22/5
f 16/31/5 10/25/5 15/46/5
f 19/33/5 21/30/5 20/47/5
f 34/34/3 33/36/3 35/38/3
f 38/37/1 35/38/1 39/40/1
f 36/39/4 39/40/4 37/42/4
f 32/41/2 37/42/2 33/48/2
f 32/43/5 38/37/5 36/39/5
f 41/45/3 33/36/3 40/49/3
g Plane.004_Plane.004_RoofMaterial
usemtl RoofMaterial
f 13/50/6 10/25/6 12/23/6
f 14/51/7 8/21/7 6/19/7
f 16/31/2 15/46/2 17/52/2
f 19/33/1 20/47/1 18/53/1
f 37/42/8 39/40/8 41/54/8
f 33/48/2 37/42/2 40/55/2
f 39/40/1 35/38/1 41/45/1
f 13/50/6 12/23/6 14/56/6
f 14/51/7 6/19/7 13/57/7
f 37/42/8 41/54/8 40/58/8
g Plane.004_Plane.004_LightMaterial
usemtl LightMaterial
f 15/46/6 10/25/6 13/50/6
f 17/59/7 13/57/7 6/19/7
f 20/47/7 21/30/7 23/29/7
f 18/53/6 23/29/6 22/28/6
f 15/46/6 13/50/6 17/60/6
f 17/59/7 6/19/7 16/61/7
f 20/47/7 23/29/7 18/53/7
f 18/53/6 22/28/6 19/33/6
g Plane.004_Plane.004_TubeMaterial
usemtl TubeMaterial
f 24/62/3 25/63/3 27/64/3
f 30/65/1 26/66/1 27/64/1
f 28/67/4 30/65/4 31/68/4
f 24/69/2 28/67/2 29/70/2
f 24/71/5 26/72/5 30/65/5
f 29/70/9 31/68/9 27/73/9
f 24/62/3 27/64/3 26/66/3
f 30/65/1 27/64/1 31/68/1
f 28/67/4 31/68/4 29/70/4
f 24/69/2 29/70/2 25/74/2
f 24/71/5 30/65/5 28/67/5
f 29/70/9 27/73/9 25/75/9
g Plane.004_Plane.004_DoorMaterial
usemtl DoorMaterial
f 52/76/2 50/77/2 51/78/2
f 52/76/2 51/78/2 53/79/2
