# Blender v2.91.2 OBJ File: 'Builds.blend'
# www.blender.org
mtllib Fabric2.mtl
o Cube.013_Cube.010
v -2.400000 0.000000 0.540000
v -2.400000 2.398902 0.540000
v -2.400000 0.000000 -2.540000
v -2.400000 2.398902 -2.540000
v -1.400000 0.000000 0.540000
v -1.400000 2.398902 0.540000
v -1.400000 0.000000 -2.540000
v -1.400000 2.398902 -2.540000
v -0.799130 0.000000 2.500000
v -0.799130 2.400000 2.500000
v -0.799130 0.000000 -2.500000
v -0.799130 2.400000 -2.500000
v 0.525338 0.162579 2.299510
v 0.525338 2.237421 2.299510
v 0.525338 0.162579 -2.299510
v 0.525338 2.237421 -2.299510
v 1.000000 2.400000 -2.500000
v 1.000000 0.000000 -2.500000
v 1.000000 0.000000 2.500000
v 1.000000 2.400000 2.500000
v 0.983018 2.244905 -2.315569
v 0.983018 0.155095 -2.315569
v 0.983018 0.155095 2.315569
v 0.983018 2.244905 2.315569
v 0.336119 1.730079 2.444165
v 0.336119 1.730079 -2.444165
v 0.892802 1.469921 2.444165
v 0.892802 1.730079 2.444165
v 0.892802 1.469921 -2.444165
v 0.892802 1.730079 -2.444165
v 0.336119 0.930079 2.444165
v 0.336119 0.930079 -2.444165
v 0.892802 0.669921 2.444165
v 0.892802 0.930079 2.444165
v 0.892802 0.669921 -2.444165
v 0.892802 0.930079 -2.444165
v -1.098444 -0.012775 -0.469652
v -1.098444 4.854164 -0.469652
v -0.835014 -0.012775 -0.317560
v -0.835014 4.854164 -0.317560
v -0.835014 -0.012775 -0.013377
v -0.835014 4.854164 -0.013377
v -1.098444 -0.012775 0.138715
v -1.098444 4.854164 0.138715
v -1.361875 -0.012775 -0.013377
v -1.361875 4.854164 -0.013377
v -1.361875 -0.012775 -0.317560
v -1.361875 4.854164 -0.317560
v -1.098444 -0.012775 -2.102846
v -1.098444 4.854164 -2.102846
v -0.835014 -0.012775 -1.950754
v -0.835014 4.854164 -1.950754
v -0.835014 -0.012775 -1.646570
v -0.835014 4.854164 -1.646570
v -1.098444 -0.012775 -1.494478
v -1.098444 4.854164 -1.494478
v -1.361875 -0.012775 -1.646570
v -1.361875 4.854164 -1.646570
v -1.361875 -0.012775 -1.950754
v -1.361875 4.854164 -1.950754
v -1.098444 -0.012775 -1.304183
v -1.098444 4.854164 -1.304183
v -0.835014 -0.012775 -1.152091
v -0.835014 4.854164 -1.152091
v -0.835014 -0.012775 -0.847908
v -0.835014 4.854164 -0.847908
v -1.098444 -0.012775 -0.695816
v -1.098444 4.854164 -0.695816
v -1.361875 -0.012775 -0.847908
v -1.361875 4.854164 -0.847908
v -1.361875 -0.012775 -1.152091
v -1.361875 4.854164 -1.152091
v -1.796888 1.041031 0.189976
v -0.524703 1.041031 0.189976
v -1.796888 0.889476 0.452476
v -0.524703 0.889477 0.452475
v -1.796888 1.192585 0.452476
v -0.524703 1.192585 0.452475
v -1.796888 1.041031 -2.491646
v -0.524703 1.041031 -2.491646
v -1.796888 0.889476 -2.229146
v -0.524703 0.889477 -2.229146
v -1.796888 1.192585 -2.229146
v -0.524703 1.192585 -2.229146
vt 0.193477 0.403261
vt 0.386954 0.403261
vt 0.386954 0.651671
vt 0.193477 0.651671
vt 0.586663 0.193566
vt 0.586663 0.387043
vt 0.506010 0.387043
vt 0.506010 0.193566
vt 0.000000 0.403261
vt 0.193477 0.403261
vt 0.193477 0.651670
vt 0.000000 0.651670
vt 0.693362 0.403261
vt 0.693362 0.596738
vt 0.612710 0.596738
vt 0.612710 0.403261
vt 0.532058 0.403261
vt 0.612710 0.403261
vt 0.612710 0.651670
vt 0.532058 0.651670
vt 0.193566 0.403261
vt 0.000000 0.403261
vt 0.000000 0.000000
vt 0.193566 0.000000
vt 0.651114 0.000000
vt 0.651114 0.193566
vt 0.506010 0.193566
vt 0.506010 0.000000
vt 0.360906 0.370922
vt 0.193566 0.370922
vt 0.193566 0.000000
vt 0.360906 0.000000
vt 0.532058 0.403261
vt 0.532058 0.596827
vt 0.386954 0.596827
vt 0.386954 0.403261
vt 0.360906 0.000000
vt 0.506010 0.000000
vt 0.506010 0.403261
vt 0.360906 0.403261
vt 0.623598 0.374622
vt 0.623598 0.206074
vt 0.638536 0.193566
vt 0.638536 0.387131
vt 0.999679 0.409130
vt 0.999679 0.782642
vt 0.987095 0.797517
vt 0.987095 0.394255
vt 0.670628 0.985125
vt 0.670628 0.611613
vt 0.683212 0.596738
vt 0.683212 1.000000
vt 0.386954 0.777884
vt 0.386954 0.609336
vt 0.401892 0.596827
vt 0.401892 0.790393
vt 0.586663 0.361510
vt 0.586663 0.194169
vt 0.623598 0.193566
vt 0.623598 0.362113
vt 0.769848 0.395550
vt 0.769848 0.766472
vt 0.732930 0.767767
vt 0.732930 0.394255
vt 0.696012 0.766472
vt 0.696012 0.395550
vt 0.732930 0.394255
vt 0.732930 0.767767
vt 0.633693 0.764683
vt 0.633693 0.597342
vt 0.670628 0.596738
vt 0.670628 0.765286
vt 0.987095 0.788510
vt 0.966113 0.788510
vt 0.966113 0.394255
vt 0.987095 0.394255
vt 0.651114 0.000000
vt 0.696012 0.000000
vt 0.696012 0.394255
vt 0.651114 0.394255
vt 0.633693 0.990993
vt 0.612710 0.990993
vt 0.612710 0.596739
vt 0.633693 0.596739
vt 0.696012 0.000000
vt 0.740910 0.000000
vt 0.740910 0.394255
vt 0.696012 0.394255
vt 0.892513 0.394255
vt 0.892513 0.786785
vt 0.867980 0.786785
vt 0.867980 0.394255
vt 0.843447 0.786785
vt 0.843447 0.394255
vt 0.765443 0.000000
vt 0.765443 0.392530
vt 0.740910 0.392530
vt 0.740910 0.000000
vt 0.789976 0.000000
vt 0.789976 0.392530
vt 0.765443 0.392530
vt 0.765443 0.000000
vt 0.961708 0.000000
vt 0.961708 0.392530
vt 0.937175 0.392530
vt 0.937175 0.000000
vt 0.966113 0.394255
vt 0.966113 0.786785
vt 0.941580 0.786785
vt 0.941580 0.394255
vt 0.888109 0.000000
vt 0.888109 0.392530
vt 0.863576 0.392530
vt 0.863576 0.000000
vt 0.814509 0.000000
vt 0.814509 0.392530
vt 0.789976 0.392530
vt 0.789976 0.000000
vt 0.917047 0.394255
vt 0.917047 0.786785
vt 0.892513 0.786785
vt 0.892514 0.394255
vt 0.937175 0.000000
vt 0.937175 0.392530
vt 0.912642 0.392530
vt 0.912642 0.000000
vt 0.794381 0.394255
vt 0.794381 0.786785
vt 0.769848 0.786785
vt 0.769848 0.394255
vt 0.986241 0.000000
vt 0.986241 0.392530
vt 0.961708 0.392530
vt 0.961708 0.000000
vt 0.839042 0.000000
vt 0.839042 0.392530
vt 0.814509 0.392530
vt 0.814509 0.000000
vt 0.863576 0.000000
vt 0.863576 0.392530
vt 0.839042 0.392530
vt 0.839042 0.000000
vt 0.941580 0.394255
vt 0.941580 0.786785
vt 0.917047 0.786785
vt 0.917047 0.394255
vt 0.818914 0.394255
vt 0.818914 0.786785
vt 0.794381 0.786785
vt 0.794381 0.394255
vt 0.843447 0.394255
vt 0.843447 0.786785
vt 0.818914 0.786785
vt 0.818914 0.394255
vt 0.912642 0.000000
vt 0.912642 0.392530
vt 0.888109 0.392530
vt 0.888109 0.000000
vt 0.475231 0.596827
vt 0.475231 0.699432
vt 0.450784 0.699432
vt 0.450784 0.596827
vt 0.426338 0.596827
vt 0.426338 0.699432
vt 0.401892 0.699432
vt 0.401892 0.596827
vt 0.024446 0.651670
vt 0.024446 0.754275
vt 0.000000 0.754275
vt 0.000000 0.651670
vt 0.499677 0.596827
vt 0.499677 0.699432
vt 0.475231 0.699432
vt 0.475231 0.596827
vt 0.450784 0.596827
vt 0.450784 0.699432
vt 0.426338 0.699432
vt 0.426338 0.596827
vt 0.524124 0.596827
vt 0.524124 0.699432
vn -1.0000 0.0000 0.0000
vn 0.0000 0.0000 -1.0000
vn 1.0000 0.0000 0.0000
vn 0.0000 0.0000 1.0000
vn 0.0000 1.0000 0.0000
vn 0.9958 0.0000 0.0917
vn 0.9941 0.1088 0.0000
vn 0.9941 -0.1088 0.0000
vn 0.9958 0.0000 -0.0917
vn 0.0351 0.0000 0.9994
vn 0.0164 0.9999 0.0000
vn 0.0164 -0.9999 0.0000
vn 0.0351 0.0000 -0.9994
vn 0.8660 0.0000 -0.5000
vn 0.8660 0.0000 0.5000
vn -0.8660 0.0000 0.5000
vn -0.8660 0.0000 -0.5000
vn 0.0000 -0.8660 0.5000
vn 0.0000 0.8660 0.5000
usemtl Material.008
s off
f 1/1/1 2/2/1 4/3/1 3/4/1
f 3/5/2 4/6/2 8/7/2 7/8/2
f 7/9/3 8/10/3 6/11/3 5/12/3
f 5/13/4 6/14/4 2/15/4 1/16/4
f 8/17/5 4/18/5 2/19/5 6/20/5
f 9/21/1 10/22/1 12/23/1 11/24/1
f 11/25/2 12/26/2 17/27/2 18/28/2
f 15/29/3 16/30/3 14/31/3 13/32/3
f 19/33/4 20/34/4 10/35/4 9/36/4
f 17/37/5 12/38/5 10/39/5 20/40/5
f 21/41/6 22/42/6 18/43/6 17/44/6
f 22/45/7 23/46/7 19/47/7 18/48/7
f 24/49/8 21/50/8 17/51/8 20/52/8
f 23/53/9 24/54/9 20/55/9 19/56/9
f 16/57/10 15/58/10 22/59/10 21/60/10
f 15/61/11 13/62/11 23/63/11 22/64/11
f 14/65/12 16/66/12 21/67/12 24/68/12
f 13/69/13 14/70/13 24/71/13 23/72/13
f 29/73/3 30/74/3 28/75/3 27/76/3
f 30/77/5 26/78/5 25/79/5 28/80/5
f 35/81/3 36/82/3 34/83/3 33/84/3
f 36/85/5 32/86/5 31/87/5 34/88/5
s 1
f 37/89/2 38/90/2 40/91/14 39/92/14
f 39/92/14 40/91/14 42/93/15 41/94/15
f 41/95/15 42/96/15 44/97/4 43/98/4
f 43/99/4 44/100/4 46/101/16 45/102/16
f 45/103/16 46/104/16 48/105/17 47/106/17
f 47/107/17 48/108/17 38/109/2 37/110/2
f 49/111/2 50/112/2 52/113/14 51/114/14
f 51/115/14 52/116/14 54/117/15 53/118/15
f 53/119/15 54/120/15 56/121/4 55/122/4
f 55/123/4 56/124/4 58/125/16 57/126/16
f 57/127/16 58/128/16 60/129/17 59/130/17
f 59/131/17 60/132/17 50/133/2 49/134/2
f 61/135/2 62/136/2 64/137/14 63/138/14
f 63/139/14 64/140/14 66/141/15 65/142/15
f 65/143/15 66/144/15 68/145/4 67/146/4
f 67/147/4 68/148/4 70/149/16 69/150/16
f 69/151/16 70/152/16 72/153/17 71/154/17
f 71/155/17 72/156/17 62/157/2 61/158/2
f 73/159/2 74/160/2 76/161/18 75/162/18
f 75/163/18 76/164/18 78/165/19 77/166/19
f 77/167/19 78/168/19 74/169/2 73/170/2
f 79/171/2 80/172/2 82/173/18 81/174/18
f 81/175/18 82/176/18 84/177/19 83/178/19
f 83/179/19 84/180/19 80/172/2 79/171/2
