# Blender v2.91.2 OBJ File: 'Builds.blend'
# www.blender.org
mtllib Fabric3.mtl
o Cube.005_Cube.025
v -0.251971 0.000000 1.291897
v -0.251971 2.000000 1.291897
v -0.251971 0.000000 -1.291897
v -0.251971 2.000000 -1.291897
v 0.728029 0.000000 1.291897
v 0.728029 2.000000 1.291897
v 0.728029 0.000000 -1.291897
v 0.728029 2.000000 -1.291897
v -0.032549 2.180087 1.291897
v -0.032549 2.180087 -1.291897
v 0.508606 2.180087 -1.291897
v 0.508606 2.180087 1.291897
v -0.635027 -0.006817 -0.377661
v -0.635027 1.638158 -0.377661
v -0.307963 -0.006817 -0.188830
v -0.307963 1.638158 -0.188830
v -0.307963 -0.006817 0.188830
v -0.307963 1.638158 0.188830
v -0.635027 -0.006817 0.377661
v -0.635027 1.638158 0.377661
v -0.962090 -0.006817 0.188830
v -0.962090 1.638158 0.188830
v -0.962090 -0.006817 -0.188830
v -0.962090 1.638158 -0.188830
v -0.635027 -0.006817 -1.231495
v -0.635027 1.638158 -1.231495
v -0.307963 -0.006817 -1.042664
v -0.307963 1.638158 -1.042664
v -0.307963 -0.006817 -0.665004
v -0.307963 1.638158 -0.665004
v -0.635027 -0.006817 -0.476173
v -0.635027 1.638158 -0.476173
v -0.962090 -0.006817 -0.665004
v -0.962090 1.638158 -0.665004
v -0.962090 -0.006817 -1.042664
v -0.962090 1.638158 -1.042664
v -0.635027 -0.006817 0.495671
v -0.635027 1.638158 0.495671
v -0.307963 -0.006817 0.684501
v -0.307963 1.638158 0.684501
v -0.307963 -0.006817 1.062162
v -0.307963 1.638158 1.062162
v -0.635027 -0.006817 1.250992
v -0.635027 1.638158 1.250992
v -0.962090 -0.006817 1.062162
v -0.962090 1.638158 1.062162
v -0.962090 -0.006817 0.684501
v -0.962090 1.638158 0.684501
v 0.045944 2.048046 1.106923
v 0.045944 2.388613 1.106923
v 0.045944 2.048046 0.766356
v 0.045944 2.388613 0.766356
v 0.386510 2.048046 1.106923
v 0.386510 2.388613 1.106923
v 0.386510 2.048046 0.766356
v 0.386510 2.388613 0.766356
v 0.136195 2.460390 1.106923
v 0.136195 2.460390 0.766356
v 0.296259 2.460390 0.766356
v 0.296259 2.460390 1.106923
vt 0.340498 0.000000
vt 0.680997 0.000000
vt 0.680997 0.439889
vt 0.340498 0.439889
vt 0.333688 0.439889
vt 0.333688 0.780387
vt 0.166844 0.780387
vt 0.166844 0.439889
vt 0.000000 0.000000
vt 0.340498 0.000000
vt 0.340498 0.439889
vt 0.000000 0.439889
vt 0.166844 0.439889
vt 0.166844 0.780387
vt 0.000000 0.780387
vt 0.000000 0.439889
vt 0.296332 0.811047
vt 0.204201 0.811047
vt 0.680997 0.000000
vt 0.773128 0.000000
vt 0.773128 0.439889
vt 0.680997 0.439889
vt 0.773128 0.439889
vt 0.773128 0.000000
vt 0.821455 0.000000
vt 0.821455 0.439889
vt 0.821455 0.439889
vt 0.821455 0.000000
vt 0.869782 0.000000
vt 0.869782 0.439889
vt 0.129488 0.811047
vt 0.037356 0.811047
vt 0.590874 0.439889
vt 0.590874 0.719944
vt 0.526578 0.719944
vt 0.526578 0.439889
vt 0.719467 0.439889
vt 0.719467 0.719944
vt 0.655170 0.719944
vt 0.655171 0.439889
vt 0.462281 0.439889
vt 0.462281 0.719944
vt 0.397985 0.719944
vt 0.397985 0.439889
vt 0.526578 0.719944
vt 0.526578 1.000000
vt 0.462281 1.000000
vt 0.462281 0.719944
vt 0.397985 1.000000
vt 0.397985 0.719944
vt 0.655170 0.439889
vt 0.655170 0.719944
vt 0.167047 0.811047
vt 0.222729 0.843195
vt 0.222729 0.907492
vt 0.167047 0.939640
vt 0.111365 0.907492
vt 0.111365 0.843195
vt 0.655170 0.719944
vt 0.655170 1.000000
vt 0.590874 1.000000
vt 0.590874 0.719944
vt 0.397985 0.439889
vt 0.397985 0.719944
vt 0.333688 0.719944
vt 0.333688 0.439889
vt 0.526578 0.439889
vt 0.526578 0.719944
vt 0.462281 0.719944
vt 0.462281 0.439889
vt 0.590874 0.719944
vt 0.590874 1.000000
vt 0.526578 1.000000
vt 0.526578 0.719944
vt 0.976653 0.439889
vt 0.976653 0.719944
vt 0.912356 0.719944
vt 0.912356 0.439889
vt 0.998375 0.000000
vt 0.998375 0.280055
vt 0.934079 0.280055
vt 0.934079 0.000000
vt 0.055682 0.811047
vt 0.111365 0.843195
vt 0.111365 0.907492
vt 0.055682 0.939640
vt 0.000000 0.907492
vt 0.000000 0.843195
vt 0.848060 0.439889
vt 0.848060 0.719944
vt 0.783763 0.719944
vt 0.783763 0.439889
vt 0.934079 0.000000
vt 0.934079 0.280055
vt 0.869782 0.280055
vt 0.869782 0.000000
vt 0.783763 0.439889
vt 0.783763 0.719944
vt 0.719467 0.719944
vt 0.719467 0.439889
vt 0.397985 0.719944
vt 0.397985 1.000000
vt 0.333688 1.000000
vt 0.333688 0.719944
vt 0.719467 0.719944
vt 0.719467 1.000000
vt 0.655170 1.000000
vt 0.655170 0.719944
vt 0.912356 0.439889
vt 0.912356 0.719944
vt 0.775149 0.719944
vt 0.830831 0.752093
vt 0.830831 0.816389
vt 0.775149 0.848537
vt 0.719467 0.816389
vt 0.719467 0.752093
vt 0.830832 0.790146
vt 0.888813 0.790146
vt 0.888813 0.848127
vt 0.830832 0.848127
vt 0.888813 0.719944
vt 0.888813 0.777926
vt 0.830832 0.777926
vt 0.830832 0.719944
vt 0.830832 0.848127
vt 0.888813 0.848127
vt 0.888813 0.906108
vt 0.830832 0.906108
vt 0.280711 0.811047
vt 0.280711 0.869028
vt 0.222729 0.869028
vt 0.222729 0.811047
vt 0.307961 0.869028
vt 0.307961 0.811047
vt 0.327593 0.811047
vt 0.327593 0.869028
vt 0.280711 0.811047
vt 0.307961 0.811047
vt 0.307961 0.869028
vt 0.280711 0.869028
vt 0.265345 0.881248
vt 0.238095 0.881248
vt 0.873448 0.790146
vt 0.846197 0.790146
vt 0.869782 0.338037
vt 0.869782 0.280055
vt 0.889414 0.280055
vt 0.889414 0.338037
vn -1.0000 0.0000 0.0000
vn 0.0000 0.0000 -1.0000
vn 1.0000 0.0000 0.0000
vn 0.0000 0.0000 1.0000
vn 0.0000 1.0000 0.0000
vn 0.6344 0.7730 0.0000
vn -0.6344 0.7730 0.0000
vn 0.5000 0.0000 -0.8660
vn 0.5000 0.0000 0.8660
vn -0.5000 0.0000 0.8660
vn -0.5000 0.0000 -0.8660
vn -0.6225 0.7827 0.0000
vn 0.6225 0.7827 0.0000
usemtl Material.002
s off
f 1/1/1 2/2/1 4/3/1 3/4/1
f 3/5/2 4/6/2 8/7/2 7/8/2
f 7/9/3 8/10/3 6/11/3 5/12/3
f 5/13/4 6/14/4 2/15/4 1/16/4
f 8/7/2 4/6/2 10/17/2 11/18/2
f 11/19/5 10/20/5 9/21/5 12/22/5
f 6/23/6 8/24/6 11/25/6 12/26/6
f 4/27/7 2/28/7 9/29/7 10/30/7
f 2/15/4 6/14/4 12/31/4 9/32/4
f 13/33/8 14/34/8 16/35/8 15/36/8
f 15/37/3 16/38/3 18/39/3 17/40/3
f 17/41/9 18/42/9 20/43/9 19/44/9
f 19/45/10 20/46/10 22/47/10 21/48/10
f 21/48/1 22/47/1 24/49/1 23/50/1
f 23/51/11 24/52/11 14/34/11 13/33/11
f 16/53/5 14/54/5 24/55/5 22/56/5 20/57/5 18/58/5
f 25/59/8 26/60/8 28/61/8 27/62/8
f 27/63/3 28/64/3 30/65/3 29/66/3
f 29/67/9 30/68/9 32/69/9 31/70/9
f 31/71/10 32/72/10 34/73/10 33/74/10
f 33/75/1 34/76/1 36/77/1 35/78/1
f 35/79/11 36/80/11 26/81/11 25/82/11
f 28/83/5 26/84/5 36/85/5 34/86/5 32/87/5 30/88/5
f 37/89/8 38/90/8 40/91/8 39/92/8
f 39/93/3 40/94/3 42/95/3 41/96/3
f 41/97/9 42/98/9 44/99/9 43/100/9
f 43/101/10 44/102/10 46/103/10 45/104/10
f 45/105/1 46/106/1 48/107/1 47/108/1
f 47/109/11 48/110/11 38/90/11 37/89/11
f 40/111/5 38/112/5 48/113/5 46/114/5 44/115/5 42/116/5
f 49/117/1 50/118/1 52/119/1 51/120/1
f 51/121/2 52/122/2 56/123/2 55/124/2
f 55/125/3 56/126/3 54/127/3 53/128/3
f 53/129/4 54/130/4 50/131/4 49/132/4
f 52/133/12 50/134/12 57/135/12 58/136/12
f 59/137/5 58/138/5 57/139/5 60/140/5
f 50/131/4 54/130/4 60/141/4 57/142/4
f 56/123/2 52/122/2 58/143/2 59/144/2
f 54/145/13 56/146/13 59/147/13 60/148/13
