# Blender v2.91.2 OBJ File: 'Builds.blend'
# www.blender.org
mtllib Liceum.mtl
o Plane.002_Plane.014
v -2.005687 -0.044387 0.000000
v -1.605688 -0.044387 0.000000
v -2.005687 2.491892 0.000000
v -1.605688 2.491892 0.000000
v 1.756162 -0.044387 0.000000
v 2.156161 -0.044387 0.000000
v 1.756162 2.491892 0.000000
v 2.156161 2.491892 0.000000
v -1.141687 -0.044387 0.000000
v -0.741687 -0.044387 0.000000
v -1.141687 2.491892 0.000000
v -0.741687 2.491892 0.000000
v 0.789678 -0.044387 0.000000
v 1.189678 -0.044387 0.000000
v 0.789678 2.491892 0.000000
v 1.189678 2.491892 0.000000
v -0.160495 -0.044387 0.000000
v 0.239505 -0.044387 0.000000
v -0.160495 2.491892 0.000000
v 0.239505 2.491892 0.000000
v -4.680000 -0.040000 1.400000
v -4.680000 2.840000 1.492127
v -4.680000 -0.040000 -2.400000
v -4.680000 2.840000 -2.400000
v -2.508000 -0.040000 1.400000
v -2.508000 2.840000 1.492127
v -2.508000 -0.040000 -0.400000
v -2.508000 2.840000 -0.400000
v 4.680000 -0.040000 1.400000
v 4.680000 2.840000 1.492127
v 2.508000 -0.040000 1.400000
v 2.508000 2.840000 1.492127
v 2.508000 -0.040000 -0.400000
v 2.508000 2.840000 -0.400000
v 4.680000 2.840000 -2.400000
v 4.680000 -0.040000 -2.400000
v -3.594000 3.840000 1.400000
v -3.594000 3.840000 -1.676848
v -2.375608 2.510186 0.021115
v 2.375608 2.510186 0.021115
v 3.594000 3.840000 -1.676848
v 3.594000 3.840000 1.400000
v 2.375608 2.510186 1.519373
v -2.375608 2.510186 1.566943
v 4.989547 2.508343 1.528978
v 4.834774 2.505272 -2.561222
v -4.829707 2.509879 -2.561222
v -4.979413 2.517556 1.528978
v -4.187690 0.905393 2.040557
v -3.669722 1.423361 2.040557
v -4.187690 0.905393 1.313690
v -3.669722 1.423361 1.313690
v -3.151754 0.905393 2.040557
v -3.151754 0.905393 1.313690
v -4.079451 -0.036684 2.469688
v -4.079451 0.133716 2.063814
v -4.079451 -0.036684 1.362186
v -4.079451 0.133716 1.362186
v -3.259993 -0.036684 2.469688
v -3.259993 0.133716 2.063814
v -3.259993 -0.036684 1.362186
v -3.259993 0.133716 1.362186
v -3.718325 3.552794 -1.286376
v -3.718325 4.242301 -1.286376
v -3.718325 3.552794 -1.532706
v -3.718325 4.242301 -1.532706
v -3.471995 3.552794 -1.286376
v -3.471995 4.242301 -1.286376
v -3.471995 3.552794 -1.532706
v -3.471995 4.242301 -1.532706
v 3.487199 3.552794 -1.286376
v 3.487199 4.242301 -1.286376
v 3.487199 3.552794 -1.532706
v 3.487199 4.242301 -1.532706
v 3.733528 3.552794 -1.286376
v 3.733528 4.242301 -1.286376
v 3.733528 3.552794 -1.532706
v 3.733528 4.242301 -1.532706
v -4.016907 -0.038703 1.880556
v -4.016907 0.979523 1.880556
v -3.960258 -0.038703 1.978674
v -3.960258 0.979523 1.978674
v -4.073555 -0.038703 1.978674
v -4.073555 0.979523 1.978674
v -3.306051 -0.038703 1.880556
v -3.306051 0.979523 1.880556
v -3.249403 -0.038703 1.978674
v -3.249403 0.979523 1.978674
v -3.362700 -0.038703 1.978674
v -3.362700 0.979523 1.978674
vt 0.887450 0.000000
vt 0.916956 0.000000
vt 0.916956 0.187088
vt 0.887450 0.187088
vt 0.946461 0.000000
vt 0.975967 0.000000
vt 0.975967 0.187088
vt 0.946461 0.187088
vt 0.139572 0.690438
vt 0.169078 0.690438
vt 0.169078 0.877526
vt 0.139572 0.877526
vt 0.916956 0.000000
vt 0.946461 0.000000
vt 0.946461 0.187088
vt 0.916956 0.187088
vt 0.169078 0.690438
vt 0.198584 0.690438
vt 0.198584 0.877526
vt 0.169078 0.877526
vt 0.371533 0.376800
vt 0.583976 0.370004
vt 0.583976 0.657106
vt 0.371533 0.657106
vt 0.583976 0.000000
vt 0.583976 0.370004
vt 0.371533 0.370004
vt 0.371533 0.000000
vt 0.000000 0.902881
vt 0.000000 0.690438
vt 0.139572 0.690438
vt 0.132777 0.902881
vt 0.835225 0.287102
vt 0.835225 0.499653
vt 0.675007 0.499653
vt 0.675007 0.287102
vt 0.823162 0.712204
vt 0.823162 0.872421
vt 0.749084 0.792313
vt 0.583976 0.690438
vt 0.583976 0.000000
vt 0.675007 0.080109
vt 0.675007 0.610330
vt 0.511105 0.869548
vt 0.378329 0.869548
vt 0.371533 0.657106
vt 0.511105 0.657106
vt 0.675007 0.499653
vt 0.835224 0.499653
vt 0.835224 0.712204
vt 0.675007 0.712204
vt 0.749084 0.712204
vt 0.749084 0.872421
vt 0.675007 0.792313
vt 0.212442 0.000000
vt 0.212442 0.690438
vt 0.000000 0.690438
vt 0.000000 0.000000
vt 0.675007 0.000000
vt 0.887450 0.006796
vt 0.887450 0.287102
vt 0.675007 0.287102
vt 0.212443 0.817323
vt 0.212443 0.530221
vt 0.321340 0.583564
vt 0.321340 0.810527
vt 0.861440 0.807962
vt 0.861440 0.947535
vt 0.835224 0.953053
vt 0.835224 0.839026
vt 0.887655 0.809972
vt 0.887655 0.949544
vt 0.861440 0.918481
vt 0.861440 0.807962
vt 0.251899 0.080108
vt 0.251899 0.450113
vt 0.212443 0.440347
vt 0.212443 0.089875
vt 0.835224 0.574204
vt 0.835224 0.287102
vt 0.944122 0.293898
vt 0.944122 0.520861
vt 0.835224 0.807962
vt 0.835224 0.668390
vt 0.944122 0.574203
vt 0.944122 0.801166
vt 0.566110 0.830010
vt 0.566110 0.690438
vt 0.675007 0.697234
vt 0.675007 0.924197
vt 0.371533 0.000000
vt 0.371533 0.530221
vt 0.327392 0.820713
vt 0.321340 0.533712
vt 0.354411 0.530221
vt 0.354411 0.832114
vt 0.944122 0.988571
vt 0.944418 0.298133
vt 0.971523 0.287102
vt 0.971523 1.000000
vt 0.511105 0.955576
vt 0.516638 0.668564
vt 0.543172 0.657106
vt 0.543172 0.958986
vt 0.996384 0.479188
vt 0.971523 0.469281
vt 0.972368 0.309071
vt 0.996384 0.287102
vt 0.971691 0.488929
vt 0.996111 0.479188
vt 0.996111 0.672006
vt 0.971523 0.649146
vt 0.425150 0.869548
vt 0.425150 0.923582
vt 0.371533 0.923582
vt 0.371533 0.869548
vt 0.478768 0.869548
vt 0.478768 0.923582
vt 0.425150 0.869548
vt 0.264198 0.817323
vt 0.318232 0.817323
vt 0.318232 0.871357
vt 0.354411 0.611916
vt 0.366981 0.641855
vt 0.366981 0.693610
vt 0.354411 0.693610
vt 0.366981 0.611916
vt 0.354411 0.611916
vt 0.354411 0.560160
vt 0.366981 0.530221
vt 0.353811 0.892561
vt 0.321340 0.892561
vt 0.321340 0.832114
vt 0.353811 0.832114
vt 0.264198 0.817323
vt 0.264198 0.877770
vt 0.212443 0.877770
vt 0.212443 0.817323
vt 0.561342 0.809690
vt 0.561342 0.860551
vt 0.543172 0.860551
vt 0.543172 0.809690
vt 0.561343 0.657106
vt 0.561343 0.707967
vt 0.543172 0.707967
vt 0.543172 0.657106
vt 0.905826 0.858824
vt 0.905826 0.909685
vt 0.887655 0.909685
vt 0.887655 0.858824
vt 0.561343 0.707967
vt 0.561343 0.758828
vt 0.543172 0.758828
vt 0.543172 0.707967
vt 0.905620 0.187088
vt 0.905620 0.237949
vt 0.887450 0.237949
vt 0.887450 0.187088
vt 0.561342 0.860551
vt 0.561342 0.911412
vt 0.543172 0.911412
vt 0.543172 0.860551
vt 0.905826 0.807962
vt 0.905826 0.858824
vt 0.887655 0.858824
vt 0.887655 0.807962
vt 0.561342 0.758828
vt 0.561342 0.809690
vt 0.543172 0.809690
vt 0.543172 0.758828
vt 0.371126 0.693610
vt 0.371126 0.768719
vt 0.362769 0.768719
vt 0.362769 0.693610
vt 0.362769 0.768719
vt 0.362769 0.843829
vt 0.354411 0.843829
vt 0.354411 0.768719
vt 0.206941 0.765547
vt 0.206941 0.840657
vt 0.198584 0.840657
vt 0.198584 0.765547
vt 0.831519 0.712204
vt 0.831519 0.787313
vt 0.823162 0.787313
vt 0.823162 0.712204
vt 0.362769 0.693610
vt 0.362769 0.768719
vt 0.354411 0.768719
vt 0.354411 0.693610
vt 0.206941 0.690438
vt 0.206941 0.765547
vt 0.198584 0.765547
vt 0.198584 0.690438
vn 0.0000 0.0000 1.0000
vn -1.0000 0.0000 0.0000
vn 1.0000 -0.0000 0.0000
vn 0.0000 -0.0320 0.9995
vn -0.0000 0.0917 0.9958
vn 0.0000 0.5860 -0.8103
vn 0.0000 0.0000 -1.0000
vn 0.6774 0.7356 0.0000
vn 0.9280 0.3725 0.0000
vn -0.9280 0.3725 0.0000
vn 0.0000 0.7873 0.6166
vn -0.6774 0.7356 0.0000
vn 0.8190 0.5736 -0.0161
vn -0.0001 -0.4364 0.8998
vn -0.8222 0.5689 -0.0160
vn -0.0076 0.1706 0.9853
vn -0.0020 0.0959 0.9954
vn -0.7071 0.7071 0.0000
vn 0.7071 0.7071 0.0000
vn 0.0000 0.9220 0.3871
vn 0.0000 1.0000 0.0000
vn 0.8660 0.0000 -0.5000
vn -0.8660 0.0000 -0.5000
usemtl Material.027
s off
f 1/1/1 2/2/1 4/3/1 3/4/1
f 5/5/1 6/6/1 8/7/1 7/8/1
f 9/9/1 10/10/1 12/11/1 11/12/1
f 13/13/1 14/14/1 16/15/1 15/16/1
f 17/17/1 18/18/1 20/19/1 19/20/1
f 21/21/2 22/22/2 24/23/2 23/24/2
f 27/25/1 33/26/1 34/27/1 28/28/1
f 27/29/3 28/30/3 26/31/3 25/32/3
f 25/33/4 26/34/4 22/35/4 21/36/4
f 32/37/5 30/38/5 42/39/5
f 35/40/6 24/41/6 38/42/6 41/43/6
f 33/44/2 31/45/2 32/46/2 34/47/2
f 31/48/4 29/49/4 30/50/4 32/51/4
f 22/52/5 26/53/5 37/54/5
f 36/55/7 23/56/7 24/57/7 35/58/7
f 30/59/3 29/60/3 36/61/3 35/62/3
f 30/63/8 35/64/8 41/65/8 42/66/8
f 28/67/9 26/68/9 44/69/9 39/70/9
f 32/71/10 34/72/10 40/73/10 43/74/10
f 34/75/11 28/76/11 39/77/11 40/78/11
f 24/79/12 22/80/12 37/81/12 38/82/12
f 26/83/8 28/84/8 38/85/8 37/86/8
f 34/87/12 32/88/12 42/89/12 41/90/12
f 28/76/11 34/75/11 41/91/11 38/92/11
f 35/93/13 30/94/13 45/95/13 46/96/13
f 35/97/14 24/98/14 47/99/14 46/100/14
f 22/101/15 24/102/15 47/103/15 48/104/15
f 44/105/16 26/106/16 22/107/16 48/108/16
f 32/109/17 43/110/17 45/111/17 30/112/17
f 49/113/18 50/114/18 52/115/18 51/116/18
f 54/117/19 52/118/19 50/114/19 53/119/19
f 53/120/1 50/121/1 49/122/1
f 55/123/2 56/124/2 58/125/2 57/126/2
f 61/127/3 62/128/3 60/129/3 59/130/3
f 59/131/20 60/132/20 56/133/20 55/134/20
f 62/135/21 58/136/21 56/137/21 60/138/21
f 63/139/2 64/140/2 66/141/2 65/142/2
f 65/143/7 66/144/7 70/145/7 69/146/7
f 69/147/3 70/148/3 68/149/3 67/150/3
f 67/151/1 68/152/1 64/153/1 63/154/1
f 71/155/2 72/156/2 74/157/2 73/158/2
f 73/159/7 74/160/7 78/161/7 77/162/7
f 77/163/3 78/164/3 76/165/3 75/166/3
f 75/167/1 76/168/1 72/169/1 71/170/1
f 79/171/22 80/172/22 82/173/22 81/174/22
f 81/175/1 82/176/1 84/177/1 83/178/1
f 83/179/23 84/180/23 80/181/23 79/182/23
f 85/183/22 86/184/22 88/185/22 87/186/22
f 87/187/1 88/188/1 90/189/1 89/190/1
f 89/191/23 90/192/23 86/193/23 85/194/23
