# Blender v2.91.2 OBJ File: 'Builds.blend'
# www.blender.org
mtllib Office1.mtl
o Office_Cube.104
v 4.129672 0.006289 -1.972169
v 4.129672 30.026413 0.060390
v 4.129672 0.006289 -2.500957
v 4.129672 30.026413 -0.468399
v 4.658460 0.006289 -1.972169
v 4.658460 30.026413 0.060390
v 4.658460 0.006289 -2.500957
v 4.658460 30.026413 -0.468399
v 4.129672 16.124527 -1.972169
v 4.129672 16.124527 -2.500957
v 4.658460 16.124527 -2.500957
v 4.658460 16.124527 -1.972169
v -4.748134 0.006287 -1.972170
v -4.748134 30.026409 0.060389
v -4.748134 0.006287 -2.500958
v -4.748134 30.026409 -0.468399
v -4.219346 0.006287 -1.972170
v -4.219346 30.026409 0.060389
v -4.219346 0.006287 -2.500958
v -4.219346 30.026409 -0.468399
v -4.748134 16.124525 -1.972170
v -4.748134 16.124525 -2.500958
v -4.219346 16.124525 -2.500958
v -4.219346 16.124525 -1.972170
v 4.129671 0.006287 2.466734
v 4.129671 30.080467 2.466734
v 4.129671 0.006287 1.937945
v 4.129671 30.080467 1.937945
v 4.658460 0.006287 2.466734
v 4.658460 30.080467 2.466734
v 4.658460 0.006287 1.937945
v 4.658460 30.080467 1.937945
v -4.748134 0.006287 2.466734
v -4.748134 30.080467 2.466734
v -4.748134 0.006287 1.937945
v -4.748134 30.080467 1.937945
v -4.219346 0.006287 2.466734
v -4.219346 30.080467 2.466734
v -4.219346 0.006287 1.937945
v -4.219346 30.080467 1.937945
v -4.375751 0.146872 2.187876
v -4.375751 0.146872 -2.187875
v -4.375751 27.777126 -0.187876
v 4.375750 0.146872 2.187876
v 4.375750 0.146872 -2.187875
v 4.375750 27.777126 -0.187876
v -4.375751 16.007280 -2.187875
v 4.375750 16.007280 -2.187875
v -4.375751 34.192940 2.187876
v -4.375751 34.192940 -0.187876
v 4.375750 34.192940 2.187876
v 4.375750 34.192940 -0.187876
v 3.170385 30.483770 2.187876
v 3.170385 30.483768 -0.187875
v 3.170385 33.430698 -0.187875
v 3.170385 33.430698 2.187876
v -3.170386 33.430698 -0.187875
v -3.170386 33.430698 2.187876
v -3.170386 30.483768 -0.187875
v -3.170386 30.483770 2.187876
vt 0.842680 0.365588
vt 0.855411 0.682511
vt 0.830713 0.364778
vt 0.474903 0.949261
vt 0.462908 0.630569
vt 0.474903 0.630569
vt 0.620234 0.250326
vt 0.607503 0.567249
vt 0.595536 0.568060
vt 0.486898 0.949261
vt 0.474903 0.630569
vt 0.486898 0.630569
vt 0.534876 0.642564
vt 0.522881 0.630569
vt 0.534876 0.630569
vt 0.785347 0.785958
vt 0.773352 0.420345
vt 0.785347 0.420345
vt 0.632201 0.932026
vt 0.620234 0.932837
vt 0.773352 0.785958
vt 0.761357 0.420345
vt 0.773352 0.420345
vt 0.855411 0.000000
vt 0.867378 0.000810
vt 0.806015 0.365588
vt 0.818746 0.682511
vt 0.794048 0.364778
vt 0.498892 0.949261
vt 0.486897 0.630569
vt 0.498892 0.630569
vt 0.892076 0.000811
vt 0.879345 0.317734
vt 0.867378 0.318542
vt 0.510887 0.949261
vt 0.498892 0.630569
vt 0.510887 0.630569
vt 0.558865 0.630569
vt 0.546870 0.642564
vt 0.546870 0.630569
vt 0.761357 0.785958
vt 0.749362 0.420345
vt 0.761357 0.420345
vt 0.904043 0.682510
vt 0.892076 0.683321
vt 0.462908 0.996182
vt 0.450914 0.630569
vt 0.462909 0.630569
vt 0.818746 0.000000
vt 0.830713 0.000810
vt 0.952021 0.682178
vt 0.940027 0.000000
vt 0.952022 0.000000
vt 0.916038 0.682178
vt 0.904043 0.000000
vt 0.916038 0.000000
vt 0.976011 0.682178
vt 0.964016 0.000000
vt 0.976011 0.000000
vt 0.928032 0.682178
vt 0.916038 0.000000
vt 0.928032 0.000000
vt 0.522881 0.642564
vt 0.510887 0.630569
vt 0.522881 0.630569
vt 0.964016 0.682178
vt 0.952022 0.000000
vt 0.964016 0.000000
vt 1.000000 0.682178
vt 0.988005 0.000000
vt 1.000000 0.000000
vt 0.940027 0.682178
vt 0.928032 0.000000
vt 0.940027 0.000000
vt 0.988005 0.682178
vt 0.976011 0.000000
vt 0.988006 0.000000
vt 0.546870 0.630569
vt 0.534876 0.642564
vt 0.534876 0.630569
vt 0.397024 0.000000
vt 0.343134 0.626742
vt 0.297768 0.359765
vt 0.595536 0.630569
vt 0.397024 0.359764
vt 0.595536 0.359764
vt 0.252401 0.626742
vt 0.198512 0.000000
vt 0.297768 0.359765
vt 0.731457 0.448027
vt 0.632201 0.249515
vt 0.731457 0.249515
vt 0.343134 0.876257
vt 0.297768 0.000000
vt 0.397024 0.000000
vt 0.595536 0.000000
vt 0.686090 0.646539
vt 0.632201 0.448027
vt 0.686090 0.448027
vt 0.027341 0.858967
vt 0.198512 0.876257
vt 0.000000 0.876257
vt 0.622877 0.232225
vt 0.794048 0.249516
vt 0.595536 0.249516
vt 0.785347 0.249516
vt 0.731457 0.420345
vt 0.731457 0.249516
vt 0.766706 0.061396
vt 0.595536 0.000000
vt 0.794048 0.000000
vt 0.686091 0.448027
vt 0.739980 0.618856
vt 0.686091 0.618856
vt 0.686091 0.762686
vt 0.739980 0.618857
vt 0.739980 0.762686
vt 0.397024 0.774398
vt 0.450913 0.630569
vt 0.450913 0.774398
vt 0.171170 0.688137
vt 0.000000 0.000000
vt 0.397024 0.630569
vt 0.632201 0.448027
vt 0.397024 0.876257
vt 0.297768 0.000000
vt 0.632201 0.646539
vt 0.027341 0.688137
vt 0.171170 0.858967
vt 0.622877 0.061396
vt 0.766706 0.232225
vt 0.252401 0.876257
vt 0.785347 0.420345
vt 0.739980 0.448027
vt 0.686091 0.618857
vt 0.397024 0.630569
vt 0.867378 0.683321
vt 0.462908 0.949261
vt 0.632201 0.249516
vt 0.474903 0.949261
vt 0.522881 0.642564
vt 0.773352 0.785958
vt 0.761357 0.785958
vt 0.830713 0.683321
vt 0.486897 0.949261
vt 0.904043 0.000000
vt 0.498892 0.949261
vt 0.558865 0.642564
vt 0.749362 0.785958
vt 0.450914 0.996182
vt 0.940027 0.682178
vt 0.904043 0.682178
vt 0.964016 0.682178
vt 0.916038 0.682178
vt 0.510887 0.642564
vt 0.952022 0.682178
vt 0.988005 0.682178
vt 0.928032 0.682178
vt 0.976011 0.682178
vt 0.546870 0.642564
vn -1.0000 0.0000 0.0000
vn 0.0000 0.1447 -0.9895
vn 1.0000 0.0000 0.0000
vn 0.0000 -0.1447 0.9895
vn 0.0000 1.0000 0.0000
vn 0.0000 0.0000 1.0000
vn 0.0000 0.0000 -1.0000
vn 0.0000 0.1675 -0.9859
vn 0.0000 -1.0000 0.0000
usemtl Material.032
s off
f 9/1/1 4/2/1 10/3/1
f 4/4/2 11/5/2 10/6/2
f 8/7/3 12/8/3 11/9/3
f 6/10/4 9/11/4 12/12/4
f 4/13/5 6/14/5 8/15/5
f 12/16/6 1/17/6 5/18/6
f 11/9/3 5/19/3 7/20/3
f 10/21/7 7/22/7 3/23/7
f 9/1/1 3/24/1 1/25/1
f 21/26/1 16/27/1 22/28/1
f 16/29/2 23/30/2 22/31/2
f 20/32/3 24/33/3 23/34/3
f 18/35/4 21/36/4 24/37/4
f 16/38/5 18/39/5 20/40/5
f 24/41/6 13/42/6 17/43/6
f 23/34/3 17/44/3 19/45/3
f 22/46/7 19/47/7 15/48/7
f 21/26/1 15/49/1 13/50/1
f 26/51/1 27/52/1 25/53/1
f 28/54/7 31/55/7 27/56/7
f 32/57/3 29/58/3 31/59/3
f 30/60/6 25/61/6 29/62/6
f 28/63/5 30/64/5 32/65/5
f 34/66/1 35/67/1 33/68/1
f 36/69/7 39/70/7 35/71/7
f 40/72/3 37/73/3 39/74/3
f 38/75/6 33/76/6 37/77/6
f 36/78/5 38/79/5 40/80/5
f 41/81/1 43/82/1 47/83/1
f 43/84/8 48/85/8 47/86/8
f 46/87/3 44/88/3 48/89/3
f 45/90/9 41/91/9 42/92/9
f 41/81/1 50/93/1 43/82/1
f 48/89/3 44/88/3 45/94/3
f 47/86/7 45/95/7 42/96/7
f 50/97/5 51/98/5 52/99/5
f 58/100/6 51/101/6 49/102/6
f 55/103/7 50/104/7 52/105/7
f 46/87/3 51/101/3 44/88/3
f 53/106/1 55/107/1 54/108/1
f 59/109/7 46/110/7 43/111/7
f 60/112/3 57/113/3 58/114/3
f 60/115/5 54/116/5 59/117/5
f 56/118/9 57/119/9 55/120/9
f 53/121/6 41/122/6 44/88/6
f 43/84/8 46/123/8 48/85/8
f 45/90/9 44/124/9 41/91/9
f 41/81/1 49/125/1 50/93/1
f 47/86/7 48/85/7 45/95/7
f 41/81/1 47/83/1 42/126/1
f 50/97/5 49/127/5 51/98/5
f 49/102/6 41/122/6 60/128/6
f 58/100/6 56/129/6 51/101/6
f 49/102/6 60/128/6 58/100/6
f 52/105/7 46/110/7 54/130/7
f 55/103/7 57/131/7 50/104/7
f 52/105/7 54/130/7 55/103/7
f 46/87/3 52/132/3 51/101/3
f 53/106/1 56/133/1 55/107/1
f 43/111/7 50/104/7 59/109/7
f 50/104/7 57/131/7 59/109/7
f 59/109/7 54/130/7 46/110/7
f 60/112/3 59/134/3 57/113/3
f 60/115/5 53/135/5 54/116/5
f 56/118/9 58/136/9 57/119/9
f 44/88/6 51/101/6 53/121/6
f 51/101/6 56/129/6 53/121/6
f 53/121/6 60/128/6 41/122/6
f 9/1/1 2/137/1 4/2/1
f 4/4/2 8/138/2 11/5/2
f 8/7/3 6/139/3 12/8/3
f 6/10/4 2/140/4 9/11/4
f 4/13/5 2/141/5 6/14/5
f 12/16/6 9/142/6 1/17/6
f 11/9/3 12/8/3 5/19/3
f 10/21/7 11/143/7 7/22/7
f 9/1/1 10/3/1 3/24/1
f 21/26/1 14/144/1 16/27/1
f 16/29/2 20/145/2 23/30/2
f 20/32/3 18/146/3 24/33/3
f 18/35/4 14/147/4 21/36/4
f 16/38/5 14/148/5 18/39/5
f 24/41/6 21/149/6 13/42/6
f 23/34/3 24/33/3 17/44/3
f 22/46/7 23/150/7 19/47/7
f 21/26/1 22/28/1 15/49/1
f 26/51/1 28/151/1 27/52/1
f 28/54/7 32/152/7 31/55/7
f 32/57/3 30/153/3 29/58/3
f 30/60/6 26/154/6 25/61/6
f 28/63/5 26/155/5 30/64/5
f 34/66/1 36/156/1 35/67/1
f 36/69/7 40/157/7 39/70/7
f 40/72/3 38/158/3 37/73/3
f 38/75/6 34/159/6 33/76/6
f 36/78/5 34/160/5 38/79/5
