# Blender v2.91.2 OBJ File: 'Builds.blend'
# www.blender.org
mtllib Office3.mtl
o Cylinder.022_Cylinder.029
v 0.000000 5.811528 -1.168321
v 0.000000 6.499081 -1.168321
v 0.302384 5.811528 -1.128511
v 0.302384 6.499081 -1.128511
v 0.584160 5.811528 -1.011795
v 0.584160 6.499081 -1.011795
v 0.916742 5.811528 -0.738466
v 0.826127 6.499081 -0.826127
v 1.011795 6.499081 -0.584160
v 1.128511 5.811528 -0.302384
v 1.128511 6.499081 -0.302384
v 1.168321 5.811528 -0.000000
v 1.128511 5.811528 0.302383
v 1.163155 6.499081 0.181159
v 0.950574 5.811528 0.694376
v 0.916743 6.499081 0.738466
v 0.476033 5.811528 1.076634
v 0.424690 6.499081 1.097901
v 0.000000 5.811528 1.168321
v 0.000000 6.499081 1.168321
v -0.424689 5.811528 1.097902
v -0.476032 6.499081 1.076634
v -0.826127 5.811528 0.826128
v -0.826127 6.499081 0.826128
v -1.011795 5.811528 0.584161
v -1.011795 6.499081 0.584161
v -1.163155 5.811528 0.181159
v -1.170409 6.499081 0.126061
v -1.128511 5.811528 -0.302383
v -1.128511 6.499081 -0.302383
v -0.950574 5.811528 -0.694376
v -0.916743 6.499081 -0.738465
v -0.584161 5.811528 -1.011795
v -0.584161 6.499081 -1.011795
v -0.302384 5.811528 -1.128511
v -0.302384 6.499081 -1.128511
v 0.000000 0.000000 -1.000000
v 0.000000 6.000000 -1.000000
v 0.258819 0.000000 -0.965926
v 0.258819 6.000000 -0.965926
v 0.500000 0.000000 -0.866025
v 0.500000 6.000000 -0.866025
v 0.707107 0.000000 -0.707107
v 0.707107 6.000000 -0.707107
v 0.866025 0.000000 -0.500000
v 0.866025 6.000000 -0.500000
v 0.965926 0.000000 -0.258819
v 0.965926 6.000000 -0.258819
v 1.000000 0.000000 -0.000000
v 1.000000 6.000000 -0.000000
v 0.965926 0.000000 0.258819
v 0.965926 6.000000 0.258819
v 0.866025 0.000000 0.500000
v 0.866025 6.000000 0.500000
v 0.707107 0.000000 0.707107
v 0.707107 6.000000 0.707107
v 0.500000 0.000000 0.866025
v 0.500000 6.000000 0.866025
v 0.258819 0.000000 0.965926
v 0.258819 6.000000 0.965926
v 0.000000 0.000000 1.000000
v 0.000000 6.000000 1.000000
v -0.258819 0.000000 0.965926
v -0.258819 6.000000 0.965926
v -0.500000 0.000000 0.866026
v -0.500000 6.000000 0.866026
v -0.707106 0.000000 0.707107
v -0.707106 6.000000 0.707107
v -0.866025 0.000000 0.500000
v -0.866025 6.000000 0.500000
v -0.965926 0.000000 0.258819
v -0.965926 6.000000 0.258819
v -1.000000 0.000000 0.000000
v -1.000000 6.000000 0.000000
v -0.965926 0.000000 -0.258819
v -0.965926 6.000000 -0.258819
v -0.866026 0.000000 -0.499999
v -0.866026 6.000000 -0.499999
v -0.707107 0.000000 -0.707106
v -0.707107 6.000000 -0.707106
v -0.500001 0.000000 -0.866025
v -0.500001 6.000000 -0.866025
v -0.258820 0.000000 -0.965926
v -0.258820 6.000000 -0.965926
vt 0.435123 0.343785
vt 0.450080 0.343785
vt 0.450080 0.458377
vt 0.435123 0.458377
vt 0.110732 0.342798
vt 0.110732 0.457557
vt 0.095796 0.456760
vt 0.420165 0.343785
vt 0.420165 0.458377
vt 0.059750 0.342798
vt 0.080860 0.342799
vt 0.080860 0.457390
vt 0.065906 0.457391
vt 0.443933 0.343783
vt 0.420165 0.343785
vt 0.428986 0.229189
vt 0.443933 0.229192
vt 0.095796 0.457557
vt 0.080860 0.456760
vt 0.095796 0.342798
vt 0.428986 0.114593
vt 0.443933 0.114596
vt 0.420165 0.229189
vt 0.032515 0.113613
vt 0.053627 0.113612
vt 0.059750 0.228207
vt 0.029867 0.228207
vt 0.000000 0.114298
vt 0.029867 0.113612
vt 0.000000 0.228920
vt 0.053640 0.342799
vt 0.029867 0.342800
vt 0.032530 0.228207
vt 0.053640 0.228208
vt 0.086186 0.113612
vt 0.107296 0.113612
vt 0.107296 0.228204
vt 0.083523 0.228205
vt 0.023773 0.343513
vt 0.000000 0.343513
vt 0.002663 0.228920
vt 0.023773 0.228921
vt 0.000000 0.343513
vt 0.014957 0.343513
vt 0.014957 0.458105
vt 0.000000 0.458105
vt 0.062413 0.113612
vt 0.083523 0.113612
vt 0.083523 0.228204
vt 0.059750 0.228205
vt 0.443938 0.114592
vt 0.420165 0.114593
vt 0.422828 0.000000
vt 0.443938 0.000001
vt 0.062413 0.228205
vt 0.083523 0.228206
vt 0.083523 0.342797
vt 0.059750 0.342798
vt 0.107296 0.342797
vt 0.083523 0.342798
vt 0.086186 0.228205
vt 0.107296 0.228206
vt 0.443933 0.114593
vt 0.458891 0.114593
vt 0.458891 0.229185
vt 0.443933 0.229185
vt 0.026769 0.007505
vt 0.049327 0.000000
vt 0.064285 0.000000
vt 0.084483 0.006142
vt 0.102262 0.021926
vt 0.112201 0.040552
vt 0.112906 0.070427
vt 0.098580 0.096652
vt 0.078732 0.109740
vt 0.064285 0.113612
vt 0.049327 0.113612
vt 0.034880 0.109740
vt 0.021926 0.102262
vt 0.011350 0.091685
vt 0.003871 0.078732
vt 0.000000 0.064284
vt 0.000705 0.043185
vt 0.011350 0.021926
vt 0.029867 0.342800
vt 0.044825 0.342800
vt 0.044825 0.457392
vt 0.029867 0.457392
vt 0.189721 0.000000
vt 0.189721 1.000000
vt 0.176919 1.000000
vt 0.176919 0.000000
vt 0.164116 1.000000
vt 0.164116 0.000000
vt 0.151314 1.000000
vt 0.151314 0.000000
vt 0.202523 0.000000
vt 0.202523 1.000000
vt 0.189721 1.000000
vt 0.189721 0.000000
vt 0.407363 0.000000
vt 0.407363 1.000000
vt 0.394560 1.000000
vt 0.394560 0.000000
vt 0.279338 0.000000
vt 0.279338 1.000000
vt 0.266536 1.000000
vt 0.266536 0.000000
vt 0.304943 0.000000
vt 0.304943 1.000000
vt 0.292141 1.000000
vt 0.292141 0.000000
vt 0.215326 0.000000
vt 0.215326 1.000000
vt 0.202523 1.000000
vt 0.202524 0.000000
vt 0.394560 0.000000
vt 0.394560 1.000000
vt 0.381758 1.000000
vt 0.381758 0.000000
vt 0.240931 0.000000
vt 0.240931 1.000000
vt 0.228128 1.000000
vt 0.228129 0.000000
vt 0.292141 0.000000
vt 0.292141 1.000000
vt 0.279338 1.000000
vt 0.279338 0.000000
vt 0.330548 0.000000
vt 0.330548 1.000000
vt 0.317746 1.000000
vt 0.317746 0.000000
vt 0.228128 0.000000
vt 0.228128 1.000000
vt 0.215326 1.000000
vt 0.215326 0.000000
vt 0.253733 0.000000
vt 0.253733 1.000000
vt 0.240931 1.000000
vt 0.240931 0.000000
vt 0.381758 0.000000
vt 0.381758 1.000000
vt 0.368955 1.000000
vt 0.368955 0.000000
vt 0.138511 0.000000
vt 0.138511 1.000000
vt 0.125709 1.000000
vt 0.125709 0.000000
vt 0.151314 0.000000
vt 0.151314 1.000000
vt 0.138511 1.000000
vt 0.138511 0.000000
vt 0.266536 0.000000
vt 0.266536 1.000000
vt 0.253733 1.000000
vt 0.253733 0.000000
vt 0.317746 0.000000
vt 0.317746 1.000000
vt 0.304943 1.000000
vt 0.304943 0.000000
vt 0.420165 0.000000
vt 0.420165 1.000000
vt 0.407363 1.000000
vt 0.407363 0.000000
vt 0.356153 0.000000
vt 0.356153 1.000000
vt 0.343350 1.000000
vt 0.343351 0.000000
vt 0.330548 1.000000
vt 0.330548 0.000000
vt 0.368955 0.000000
vt 0.368955 1.000000
vt 0.356153 1.000000
vt 0.356153 0.000000
vt 0.125709 0.000000
vt 0.125709 1.000000
vt 0.112906 1.000000
vt 0.112906 0.000000
vn 0.1305 0.0000 -0.9914
vn 0.9911 -0.0269 0.1305
vn 0.3827 0.0000 -0.9239
vn 0.6241 -0.0087 -0.7813
vn 0.9092 -0.0162 -0.4160
vn 0.7931 0.0269 -0.6085
vn 0.9954 0.0162 -0.0943
vn 0.9127 0.0223 0.4080
vn 0.6088 0.0000 0.7934
vn 0.1771 -0.0086 0.9842
vn -0.1771 0.0086 0.9842
vn -0.5707 -0.0086 0.8211
vn -0.7934 0.0000 0.6088
vn -0.9409 0.0086 0.3387
vn -0.9965 -0.0086 -0.0836
vn -0.9048 0.0086 -0.4258
vn -0.6455 -0.0086 -0.7637
vn -0.3827 0.0000 -0.9239
vn 0.0000 1.0000 -0.0000
vn -0.1305 0.0000 -0.9914
vn 0.6088 0.0000 -0.7934
vn 0.7934 0.0000 -0.6088
vn 0.9239 0.0000 -0.3827
vn 0.9914 0.0000 -0.1305
vn 0.9914 0.0000 0.1305
vn 0.9239 0.0000 0.3827
vn 0.7934 0.0000 0.6088
vn 0.3827 0.0000 0.9239
vn 0.1305 0.0000 0.9914
vn -0.1305 0.0000 0.9914
vn -0.3827 0.0000 0.9239
vn -0.6088 0.0000 0.7934
vn -0.9239 0.0000 0.3827
vn -0.9914 0.0000 0.1305
vn -0.9914 0.0000 -0.1305
vn -0.9239 0.0000 -0.3827
vn -0.7934 0.0000 -0.6088
vn -0.6088 0.0000 -0.7934
usemtl Material.006
s off
f 3/1/1 1/2/1 2/3/1 4/4/1
f 14/5/2 13/6/2 12/7/2
f 5/8/3 3/1/3 4/4/3 6/9/3
f 7/10/4 5/11/4 6/12/4 8/13/4
f 10/14/5 7/15/5 9/16/5 11/17/5
f 8/18/6 9/19/6 7/20/6
f 12/21/7 10/22/7 11/17/7 14/23/7
f 15/24/8 13/25/8 14/26/8 16/27/8
f 17/28/9 15/29/9 16/27/9 18/30/9
f 19/31/10 17/32/10 18/33/10 20/34/10
f 21/35/11 19/36/11 20/37/11 22/38/11
f 23/39/12 21/40/12 22/41/12 24/42/12
f 25/43/13 23/44/13 24/45/13 26/46/13
f 27/47/14 25/48/14 26/49/14 28/50/14
f 29/51/15 27/52/15 28/53/15 30/54/15
f 31/55/16 29/56/16 30/57/16 32/58/16
f 33/59/17 31/60/17 32/61/17 34/62/17
f 35/63/18 33/64/18 34/65/18 36/66/18
f 28/67/19 26/68/19 24/69/19 22/70/19 20/71/19 18/72/19 16/73/19 14/74/19 11/75/19 9/76/19 8/77/19 6/78/19 4/79/19 2/80/19 36/81/19 34/82/19 32/83/19 30/84/19
f 1/85/20 35/86/20 36/87/20 2/88/20
f 37/89/1 38/90/1 40/91/1 39/92/1
f 39/92/3 40/91/3 42/93/3 41/94/3
f 41/94/21 42/93/21 44/95/21 43/96/21
f 43/97/22 44/98/22 46/99/22 45/100/22
f 45/101/23 46/102/23 48/103/23 47/104/23
f 47/105/24 48/106/24 50/107/24 49/108/24
f 49/109/25 50/110/25 52/111/25 51/112/25
f 51/113/26 52/114/26 54/115/26 53/116/26
f 53/117/27 54/118/27 56/119/27 55/120/27
f 55/121/9 56/122/9 58/123/9 57/124/9
f 57/125/28 58/126/28 60/127/28 59/128/28
f 59/129/29 60/130/29 62/131/29 61/132/29
f 61/133/30 62/134/30 64/135/30 63/136/30
f 63/137/31 64/138/31 66/139/31 65/140/31
f 65/141/32 66/142/32 68/143/32 67/144/32
f 67/145/13 68/146/13 70/147/13 69/148/13
f 69/149/33 70/150/33 72/151/33 71/152/33
f 71/153/34 72/154/34 74/155/34 73/156/34
f 73/157/35 74/158/35 76/159/35 75/160/35
f 75/161/36 76/162/36 78/163/36 77/164/36
f 77/165/37 78/166/37 80/167/37 79/168/37
f 79/168/38 80/167/38 82/169/38 81/170/38
f 81/171/18 82/172/18 84/173/18 83/174/18
f 83/175/20 84/176/20 38/177/20 37/178/20
