# Blender v2.91.2 OBJ File: 'Builds.blend'
# www.blender.org
mtllib Office.mtl
o House2.001_Cube.017
v -37.405197 0.000003 6.943654
v -37.405197 27.259726 6.943654
v -37.405197 0.000003 -8.404159
v -37.405197 27.259726 -8.404159
v -5.440759 0.000003 6.943654
v -5.440759 27.259726 6.943654
v -5.440759 0.000003 -8.404159
v -5.440759 27.259726 -8.404159
v 37.405197 0.000003 6.943654
v 37.405197 27.259726 6.943654
v 37.405197 0.000003 -8.404159
v 37.405197 27.259726 -8.404159
v 5.440759 0.000003 6.943654
v 5.440759 27.259726 6.943654
v 5.440759 0.000003 -8.404159
v 5.440759 27.259726 -8.404159
v -42.486603 30.234890 9.383504
v -42.486603 30.234890 -10.844009
v 0.000000 30.234890 -10.844009
v 0.000000 30.234890 9.383504
v 42.486603 30.234890 9.383504
v 42.486603 30.234890 -10.844009
v -42.486603 48.370831 9.383504
v -42.486603 48.370831 -10.844009
v 0.000000 48.370831 -10.844009
v 0.000000 48.370831 9.383504
v 42.486603 48.370831 9.383504
v 42.486603 48.370831 -10.844009
v -12.098915 10.535679 2.859196
v -12.098915 16.254070 2.859196
v -12.098915 10.535679 -2.859196
v -12.098915 16.254070 -2.859196
v 12.098915 10.535679 2.859196
v 12.098915 16.254070 2.859196
v 12.098915 10.535679 -2.859196
v 12.098915 16.254070 -2.859196
v -43.000000 48.305759 -11.481332
v -43.000000 54.448654 -11.481332
v -43.000000 48.305759 9.481332
v -43.000000 54.448654 9.481332
v 43.000000 48.305759 -11.481332
v 43.000000 54.448654 -11.481332
v 43.000000 48.305759 9.481332
v 43.000000 54.448654 9.481332
v 0.000000 48.305759 9.481332
v 0.000000 54.448654 9.481332
v 0.000000 48.305759 -11.481332
v 0.000000 54.448654 -11.481332
vt 0.035152 0.977864
vt 0.035152 0.617443
vt 0.238077 0.617443
vt 0.238077 0.977864
vt 0.976950 0.619461
vt 0.976950 0.971642
vt 0.554325 0.971641
vt 0.554325 0.619461
vt 0.035152 0.977524
vt 0.035152 0.617103
vt 0.238077 0.617103
vt 0.238077 0.977524
vt 0.976700 0.619452
vt 0.976700 0.971633
vt 0.554075 0.971633
vt 0.554075 0.619452
vt 0.905329 0.510702
vt 0.905329 0.185994
vt 0.944415 0.130724
vt 0.944415 0.562322
vt 0.237588 0.977524
vt 0.034663 0.977524
vt 0.034663 0.617103
vt 0.237588 0.617103
vt 0.975754 0.619719
vt 0.553129 0.619719
vt 0.553129 0.971900
vt 0.975754 0.971900
vt 0.237588 0.977864
vt 0.034663 0.977864
vt 0.034663 0.617443
vt 0.237588 0.617443
vt 0.977898 0.614557
vt 0.555273 0.614557
vt 0.555273 0.974978
vt 0.977898 0.974978
vt 0.397536 0.229106
vt 0.397536 0.432030
vt 0.319682 0.464289
vt 0.319682 0.196847
vt 0.533680 0.830695
vt 0.266237 0.830695
vt 0.266237 0.590906
vt 0.533680 0.590906
vt 0.263620 0.029368
vt 0.263620 0.591114
vt 0.028733 0.591115
vt 0.028733 0.029368
vt 0.501597 0.938833
vt 0.298673 0.938833
vt 0.266414 0.856844
vt 0.533856 0.856844
vt 0.906579 0.509743
vt 0.906579 0.185035
vt 0.945665 0.133415
vt 0.945665 0.565012
vt 0.501597 0.936935
vt 0.298673 0.936935
vt 0.266414 0.859081
vt 0.533856 0.859081
vt 0.906594 0.188915
vt 0.906594 0.513623
vt 0.945680 0.565242
vt 0.945680 0.133645
vt 0.501597 0.939457
vt 0.298673 0.939457
vt 0.266414 0.857468
vt 0.533856 0.857468
vt 0.906874 0.513394
vt 0.906874 0.188685
vt 0.945960 0.133415
vt 0.945960 0.565013
vt 0.774895 0.590906
vt 0.774895 0.029160
vt 0.535107 0.029160
vt 0.535107 0.590906
vt 0.773468 0.029160
vt 0.773468 0.590906
vt 0.538766 0.590906
vt 0.538766 0.029160
vt 0.775753 0.591114
vt 0.775753 0.029368
vt 0.535965 0.029368
vt 0.535965 0.591114
vt 0.535965 0.825816
vt 0.268522 0.825816
vt 0.268522 0.591114
vt 0.535965 0.591115
vt 0.399881 0.484402
vt 0.428916 0.484402
vt 0.428916 0.513437
vt 0.399881 0.513437
vt 0.399881 0.542471
vt 0.428916 0.542471
vt 0.428916 0.571506
vt 0.399881 0.571506
vt 0.370846 0.513437
vt 0.370846 0.542471
vt 0.457950 0.513437
vt 0.457950 0.542471
vt 0.813490 0.352697
vt 0.813490 0.568573
vt 0.876750 0.568573
vt 0.876750 0.352697
vt 0.960580 0.569408
vt 0.960580 0.126589
vt 0.897319 0.126589
vt 0.897319 0.569408
vt 0.876505 0.567477
vt 0.876505 0.351601
vt 0.813245 0.351601
vt 0.813245 0.567477
vt 0.896195 0.126818
vt 0.896195 0.569637
vt 0.959455 0.569637
vt 0.959455 0.126818
vt 0.515747 0.025621
vt 0.299871 0.025621
vt 0.299871 0.468440
vt 0.515747 0.468440
vt 0.515862 0.025621
vt 0.299986 0.025621
vt 0.299986 0.468440
vt 0.515862 0.468440
vt 0.896906 0.126818
vt 0.896906 0.569637
vt 0.960166 0.569637
vt 0.960166 0.126818
vt 0.960803 0.569408
vt 0.960803 0.126590
vt 0.897543 0.126589
vt 0.897543 0.569408
vn -1.0000 0.0000 0.0000
vn 0.0000 0.0000 -1.0000
vn 1.0000 0.0000 0.0000
vn 0.0000 0.0000 1.0000
vn 0.0000 -0.6341 0.7732
vn -0.5053 -0.8630 0.0000
vn -0.4798 -0.8774 0.0000
vn 0.0000 -0.6341 -0.7732
vn 0.5053 -0.8630 0.0000
vn 0.4798 -0.8774 0.0000
vn 0.0000 -1.0000 0.0000
vn 0.0000 1.0000 0.0000
usemtl Material.013
s off
f 1/1/1 2/2/1 4/3/1 3/4/1
f 3/5/2 4/6/2 8/7/2 7/8/2
f 7/9/3 8/10/3 6/11/3 5/12/3
f 5/13/4 6/14/4 2/15/4 1/16/4
f 2/17/5 6/18/5 20/19/5 17/20/5
f 9/21/3 11/22/3 12/23/3 10/24/3
f 11/25/2 15/26/2 16/27/2 12/28/2
f 15/29/1 13/30/1 14/31/1 16/32/1
f 13/33/4 9/34/4 10/35/4 14/36/4
f 4/37/6 2/38/6 17/39/6 18/40/6
f 18/41/1 17/42/1 23/43/1 24/44/1
f 22/45/2 19/46/2 25/47/2 28/48/2
f 16/49/7 14/50/7 20/51/7 19/52/7
f 8/53/8 4/54/8 18/55/8 19/56/8
f 10/57/9 12/58/9 22/59/9 21/60/9
f 14/61/5 10/62/5 21/63/5 20/64/5
f 6/65/10 8/66/10 19/67/10 20/68/10
f 12/69/8 16/70/8 19/71/8 22/72/8
f 17/73/4 20/74/4 26/75/4 23/76/4
f 19/77/2 18/78/2 24/79/2 25/80/2
f 20/81/4 21/82/4 27/83/4 26/84/4
f 21/85/3 22/86/3 28/87/3 27/88/3
f 31/89/2 32/90/2 36/91/2 35/92/2
f 33/93/4 34/94/4 30/95/4 29/96/4
f 31/97/11 35/92/11 33/93/11 29/98/11
f 36/91/12 32/99/12 30/100/12 34/94/12
f 37/101/1 39/102/1 40/103/1 38/104/1
f 45/105/4 43/106/4 44/107/4 46/108/4
f 43/109/3 41/110/3 42/111/3 44/112/3
f 47/113/2 37/114/2 38/115/2 48/116/2
f 44/117/12 42/118/12 48/119/12 46/120/12
f 46/121/12 48/122/12 38/123/12 40/124/12
f 41/125/2 47/126/2 48/127/2 42/128/2
f 39/129/4 45/130/4 46/131/4 40/132/4
