# Blender v2.91.2 OBJ File: 'Builds.blend'
# www.blender.org
mtllib Office2.mtl
o Cube.007_Cube.053
v -1.000000 0.000000 1.000000
v -1.000000 3.605923 1.000000
v -1.000000 0.000000 -1.000000
v -1.000000 2.705923 -1.000000
v 1.000000 0.000000 1.000000
v 1.000000 3.605923 1.000000
v 1.000000 0.000000 -1.000000
v 1.000000 2.705923 -1.000000
v -1.141371 3.690479 1.131949
v -1.141371 2.663244 -1.150793
v 1.141371 2.663244 -1.150793
v 1.141371 3.690479 1.131949
v -1.141371 4.267337 1.118735
v -1.141371 3.218795 -1.177577
v 1.141371 3.218795 -1.177577
v 1.141371 4.267337 1.118735
v -1.141371 0.004682 -1.150793
v 1.141371 0.004682 -1.150793
vt 0.583419 0.000000
vt 0.583419 0.525941
vt 0.291710 0.394672
vt 0.291710 0.000000
vt 0.934879 0.920613
vt 0.904731 0.914388
vt 0.904731 0.526624
vt 0.934879 0.525941
vt 0.583419 0.525941
vt 0.583419 0.131269
vt 0.875129 0.000000
vt 0.875129 0.525941
vt 0.291710 0.000000
vt 0.291709 0.525941
vt 0.000000 0.525941
vt 0.000000 0.000000
vt 0.934879 0.919930
vt 0.934879 0.532166
vt 0.965027 0.525941
vt 0.965027 0.920613
vt 0.977142 0.022611
vt 0.977142 0.342496
vt 0.956252 0.365107
vt 0.956252 0.000000
vt 0.956252 0.000000
vt 0.956252 0.332949
vt 0.875129 0.332949
vt 0.875129 0.000000
vt 0.977142 0.312329
vt 0.977142 0.020620
vt 1.000000 0.000000
vt 1.000000 0.332949
vt 0.332949 0.913705
vt 0.000000 0.913705
vt 0.000000 0.525941
vt 0.332949 0.525941
vt 0.985917 0.548552
vt 0.985917 0.868436
vt 0.965027 0.891048
vt 0.965027 0.525941
vt 0.332949 0.525941
vt 0.665898 0.525941
vt 0.665898 0.894134
vt 0.332949 0.894134
vt 0.743234 0.891042
vt 0.745239 0.525941
vt 0.820571 0.556044
vt 0.820571 0.924237
vt 0.667902 0.924237
vt 0.665897 0.559136
vt 0.743234 0.525941
vt 0.743234 0.894134
vt 0.904730 0.525941
vt 0.904730 0.858890
vt 0.820571 0.858890
vt 0.820571 0.525941
vn -1.0000 0.0000 0.0000
vn -0.7295 0.0000 0.6839
vn 1.0000 0.0000 0.0000
vn 0.0000 0.0000 1.0000
vn 0.7295 0.0000 0.6839
vn -0.1603 -0.9001 0.4051
vn 0.0000 -0.0482 -0.9988
vn 0.0000 -0.8420 0.5395
vn 0.0000 0.0000 -1.0000
vn 0.1603 -0.9001 0.4051
vn 0.0000 0.9097 -0.4154
vn 0.0000 0.0229 0.9997
usemtl Material.031
s off
f 1/1/1 2/2/1 4/3/1 3/4/1
f 4/5/2 10/6/2 17/7/2 3/8/2
f 7/9/3 8/10/3 6/11/3 5/12/3
f 5/13/4 6/14/4 2/15/4 1/16/4
f 18/17/5 11/18/5 8/19/5 7/20/5
f 4/21/6 2/22/6 9/23/6 10/24/6
f 11/25/7 10/26/7 14/27/7 15/28/7
f 2/29/8 6/30/8 12/31/8 9/32/8
f 10/33/9 11/34/9 18/35/9 17/36/9
f 6/37/10 8/38/10 11/39/10 12/40/10
f 15/41/11 14/42/11 13/43/11 16/44/11
f 12/45/3 11/46/3 15/47/3 16/48/3
f 10/49/1 9/50/1 13/51/1 14/52/1
f 9/53/12 12/54/12 16/55/12 13/56/12
