# Blender v2.91.2 OBJ File: 'Builds.blend'
# www.blender.org
mtllib Rossiya.mtl
o Cube.001_Cube.022
v -22.000000 12.635236 20.086489
v -22.000000 0.000000 4.875915
v -22.000000 6.838547 4.996998
v 22.000000 12.635236 20.086489
v 22.000000 0.000000 4.875915
v 22.000000 6.838547 4.996998
v -22.000000 0.000000 -13.000000
v -22.000000 12.277950 -13.295811
v 22.000000 0.000000 -13.000000
v 22.000000 12.277950 -13.295811
v -22.000000 15.232319 25.877237
v 22.000000 15.232319 25.877237
v 19.736250 0.000000 4.875915
v -19.736250 0.000000 4.875915
v -19.942575 6.838547 4.996998
v 19.942575 6.838547 4.996998
v 19.755590 12.635236 20.086489
v -19.755590 12.635236 20.086489
v 19.755590 0.000000 20.000000
v -19.755590 0.000000 20.000000
v -22.000000 21.471537 26.638477
v 22.000000 21.471537 26.638477
v -21.462410 3.740993 27.815994
v -21.462410 4.259007 27.815994
v -21.462410 3.740993 -12.174995
v -21.462410 4.259007 -12.174995
v 21.528162 3.740993 27.815994
v 21.528162 4.259007 27.815994
v 21.528162 3.740993 -12.174995
v 21.528162 4.259007 -12.174995
v 3.989414 3.740993 27.815994
v 14.020547 3.740993 27.815994
v 14.020547 4.259007 27.815994
v 3.989414 4.259007 27.815994
v 3.989414 3.740993 35.815994
v 14.020547 3.740993 35.815994
v 14.020547 4.259007 35.815994
v 3.989414 4.259007 35.815994
v -20.020756 -0.162858 26.653355
v -20.020756 4.166927 26.653355
v -19.621885 -0.162858 27.344219
v -19.621885 4.166927 27.344219
v -20.419626 -0.162858 27.344219
v -20.419626 4.166927 27.344219
v 20.077309 -0.162858 26.220919
v 20.077309 4.166927 26.220919
v 20.476181 -0.162858 26.911783
v 20.476181 4.166927 26.911783
v 19.678436 -0.162858 26.911783
v 19.678436 4.166927 26.911783
v 12.774471 -0.162858 34.523758
v 12.774471 4.166927 34.523758
v 13.173344 -0.162858 35.214622
v 13.173344 4.166927 35.214622
v 12.375599 -0.162858 35.214622
v 12.375599 4.166927 35.214622
v 5.520262 -0.162858 34.610241
v 5.520262 4.166927 34.610241
v 5.919132 -0.162858 35.301109
v 5.919132 4.166927 35.301109
v 5.121391 -0.162858 35.301109
v 5.121391 4.166927 35.301109
v 12.774471 -0.162858 26.523756
v 12.774471 4.166927 26.523756
v 13.173344 -0.162858 27.214621
v 13.173344 4.166927 27.214621
v 12.375599 -0.162858 27.214621
v 12.375599 4.166927 27.214621
v 5.897543 -0.162858 26.806644
v 5.897543 4.166927 26.806644
v 5.560402 -0.162858 27.529644
v 5.560402 4.166927 27.529644
v 5.102837 -0.162858 26.876171
v 5.102837 4.166927 26.876171
vt 0.981792 0.453909
vt 0.912802 0.478308
vt 0.912802 0.000000
vt 0.713868 0.743254
vt 0.751865 0.501589
vt 0.816103 0.923775
vt 0.816103 0.956615
vt 0.949611 0.478308
vt 0.949611 0.956615
vt 0.685315 0.950584
vt 0.641719 0.761215
vt 0.539484 0.685637
vt 0.510931 0.478308
vt 0.641719 0.505117
vt 0.205683 1.000000
vt 0.137356 0.521692
vt 0.205683 0.521692
vt 0.577480 0.927303
vt 0.564091 0.859626
vt 0.356695 0.809984
vt 0.379061 0.884335
vt 0.354452 0.884335
vt 0.401426 0.809984
vt 0.379061 0.884335
vt 0.379061 0.809984
vt 0.000000 0.521692
vt 0.137356 0.951204
vt 0.000000 0.951204
vt 0.208599 0.700939
vt 0.280068 0.865322
vt 0.205683 0.865322
vt 0.280068 0.865322
vt 0.351538 0.700939
vt 0.354453 0.865322
vt 0.816103 0.478308
vt 0.641719 0.950584
vt 0.467335 0.478308
vt 0.912802 0.000000
vt 0.912802 0.478308
vt 0.981792 0.000000
vt 0.981792 0.024399
vt 0.981792 0.478308
vt 0.738475 0.569267
vt 0.816103 0.478308
vt 0.467335 0.667677
vt 0.137356 1.000000
vt 0.379061 0.809984
vt 0.403669 0.884335
vt 0.137356 0.521692
vt 0.331057 0.700939
vt 0.205683 0.644830
vt 0.331057 0.521692
vt 0.456430 0.700939
vt 0.331057 0.577801
vt 0.456430 0.521692
vt 0.467335 0.000000
vt 0.462061 0.956420
vt 0.456430 0.956420
vt 0.456430 0.521692
vt 0.462061 0.521692
vt 0.960873 0.913034
vt 0.955242 0.913034
vt 0.955242 0.478308
vt 0.960873 0.478308
vt 0.960874 0.478308
vt 0.966505 0.478308
vt 0.966505 0.754985
vt 0.960874 0.754985
vt 0.000000 0.000000
vt 0.467335 0.000000
vt 0.467335 0.434728
vt 0.190657 0.434728
vt 0.081612 0.434728
vt 0.000000 0.434728
vt 0.409301 0.891597
vt 0.403670 0.891597
vt 0.403670 0.809984
vt 0.409301 0.809984
vt 0.447049 0.700939
vt 0.452680 0.700939
vt 0.452680 0.787905
vt 0.447049 0.787905
vt 0.955242 0.945642
vt 0.949611 0.945642
vt 0.949611 0.478308
vt 0.955242 0.478308
vt 0.447049 0.809984
vt 0.441418 0.809984
vt 0.441418 0.700939
vt 0.447049 0.700939
vt 0.190657 0.521692
vt 0.081612 0.521692
vt 0.441418 0.700939
vt 0.441418 0.809984
vt 0.354454 0.809984
vt 0.354454 0.700939
vt 0.452680 0.874866
vt 0.447049 0.874866
vt 0.447049 0.787903
vt 0.452680 0.787903
vt 0.240371 0.865322
vt 0.240371 0.912389
vt 0.231699 0.912389
vt 0.231699 0.865322
vt 0.283731 0.865322
vt 0.283731 0.912390
vt 0.275059 0.912390
vt 0.275059 0.865322
vt 0.435314 0.809984
vt 0.435314 0.857052
vt 0.426643 0.857052
vt 0.426643 0.809984
vt 0.257713 0.865322
vt 0.257713 0.912390
vt 0.249043 0.912390
vt 0.249043 0.865322
vt 0.426645 0.857052
vt 0.426645 0.904119
vt 0.417973 0.904119
vt 0.417973 0.857052
vt 0.275059 0.865322
vt 0.275059 0.912390
vt 0.266387 0.912390
vt 0.266387 0.865322
vt 0.443989 0.809984
vt 0.443989 0.857052
vt 0.435318 0.857052
vt 0.435318 0.809984
vt 0.417973 0.857052
vt 0.417973 0.904119
vt 0.409301 0.904119
vt 0.409301 0.857052
vt 0.266388 0.865322
vt 0.266388 0.912390
vt 0.257715 0.912390
vt 0.257715 0.865322
vt 0.417973 0.809984
vt 0.417973 0.857052
vt 0.409302 0.857052
vt 0.409302 0.809984
vt 0.231699 0.865322
vt 0.231699 0.912389
vt 0.223027 0.912389
vt 0.223027 0.865322
vt 0.426645 0.809984
vt 0.426645 0.857052
vt 0.249044 0.865322
vt 0.249044 0.912389
vt 0.240372 0.912389
vt 0.240372 0.865322
vt 0.435317 0.857052
vt 0.435317 0.904119
vt 0.426645 0.904119
vt 0.426645 0.857052
vt 0.214355 0.865322
vt 0.214355 0.912390
vt 0.205683 0.912390
vt 0.205683 0.865322
vt 0.443989 0.857052
vt 0.443989 0.904119
vt 0.435316 0.904119
vt 0.435316 0.857052
vt 0.223028 0.865322
vt 0.223028 0.912390
vt 0.214355 0.912390
vt 0.214355 0.865322
vn 0.0000 -0.9124 0.4092
vn -1.0000 -0.0000 0.0000
vn 0.0000 -0.0241 -0.9997
vn 1.0000 0.0000 0.0000
vn 0.0000 -0.1211 0.9926
vn 0.0000 -0.0177 0.9998
vn 0.0000 -0.0068 1.0000
vn -0.9995 -0.0301 -0.0013
vn 0.9995 -0.0301 -0.0013
vn 0.0000 0.9745 -0.2243
vn -0.9999 -0.0001 0.0124
vn 0.9999 -0.0001 0.0124
vn 0.0000 0.0000 1.0000
vn 0.0000 1.0000 -0.0000
vn 0.0000 0.0000 -1.0000
vn 0.0000 -1.0000 0.0000
vn 0.8660 0.0000 -0.5000
vn -0.8660 0.0000 -0.5000
vn 0.9063 0.0000 0.4226
vn -0.8192 0.0000 0.5736
usemtl Material.017
s off
f 17/1/1 12/2/1 11/3/1
f 3/4/2 11/5/2 8/6/2
f 8/7/3 9/8/3 7/9/3
f 3/4/2 7/10/2 2/11/2
f 6/12/4 9/13/4 10/14/4
f 12/15/5 21/16/5 11/17/5
f 6/12/4 12/18/4 4/19/4
f 15/20/6 2/21/6 14/22/6
f 16/23/6 5/24/6 6/25/6
f 18/26/7 19/27/7 17/28/7
f 20/29/8 15/30/8 14/31/8
f 16/32/9 19/33/9 13/34/9
f 11/5/2 21/35/2 8/6/2
f 12/18/4 10/14/4 22/36/4
f 21/37/10 10/38/10 8/39/10
f 11/3/1 1/40/1 18/41/1
f 17/1/1 4/42/1 12/2/1
f 11/3/1 18/41/1 17/1/1
f 3/4/2 1/43/2 11/5/2
f 8/7/3 10/44/3 9/8/3
f 3/4/2 8/6/2 7/10/2
f 6/12/4 5/45/4 9/13/4
f 12/15/5 22/46/5 21/16/5
f 6/12/4 10/14/4 12/18/4
f 15/20/6 3/47/6 2/21/6
f 16/23/6 13/48/6 5/24/6
f 18/26/7 20/49/7 19/27/7
f 20/50/11 18/51/11 15/52/11
f 16/53/12 17/54/12 19/55/12
f 21/37/10 22/56/10 10/38/10
f 23/57/2 24/58/2 26/59/2 25/60/2
f 29/61/4 30/62/4 28/63/4 27/64/4
f 31/65/13 34/66/13 24/67/13 23/68/13
f 30/69/14 26/70/14 24/71/14 34/72/14
f 30/69/14 33/73/14 28/74/14
f 30/69/14 34/72/14 33/73/14
f 27/75/13 28/76/13 33/77/13 32/78/13
f 34/79/2 31/80/2 35/81/2 38/82/2
f 25/83/15 26/84/15 30/85/15 29/86/15
f 36/87/13 37/88/13 38/89/13 35/90/13
f 33/73/14 34/72/14 38/91/14 37/92/14
f 31/93/16 32/94/16 36/95/16 35/96/16
f 32/97/4 33/98/4 37/99/4 36/100/4
f 39/101/17 40/102/17 42/103/17 41/104/17
f 41/105/13 42/106/13 44/107/13 43/108/13
f 43/109/18 44/110/18 40/111/18 39/112/18
f 45/113/17 46/114/17 48/115/17 47/116/17
f 47/117/13 48/118/13 50/119/13 49/120/13
f 49/121/18 50/122/18 46/123/18 45/124/18
f 51/125/17 52/126/17 54/127/17 53/128/17
f 53/129/13 54/130/13 56/131/13 55/132/13
f 55/133/18 56/134/18 52/135/18 51/136/18
f 57/137/17 58/138/17 60/139/17 59/140/17
f 59/141/13 60/142/13 62/143/13 61/144/13
f 61/145/18 62/146/18 58/138/18 57/137/18
f 63/147/17 64/148/17 66/149/17 65/150/17
f 65/151/13 66/152/13 68/153/13 67/154/13
f 67/155/18 68/156/18 64/157/18 63/158/18
f 69/159/19 70/160/19 72/161/19 71/162/19
f 71/163/20 72/164/20 74/165/20 73/166/20
